<?xml version="1.0" encoding="UTF-8" standalone="no"?>
<!DOCTYPE svg PUBLIC "-//W3C//DTD SVG 1.1//EN" "http://www.w3.org/Graphics/SVG/1.1/DTD/svg11.dtd">
<svg xmlns="http://www.w3.org/2000/svg" version="1.1" viewBox="0.00 0.00 691.00 361.00">
<g stroke-width="3.10" fill="none" stroke-linecap="butt">
<path stroke="#6c8fa2" vector-effect="non-scaling-stroke" d="
  M 392.26 118.95
  L 387.70 109.51
  Q 387.47 109.05 387.00 108.82
  Q 385.70 108.21 386.23 107.30"
/>
<path stroke="#6c8fa2" vector-effect="non-scaling-stroke" d="
  M 223.23 176.35
  Q 222.71 175.65 222.04 175.28"
/>
<path stroke="#cf6a6d" vector-effect="non-scaling-stroke" d="
  M 222.04 175.28
  Q 219.46 171.67 219.05 166.10"
/>
<path stroke="#78374d" vector-effect="non-scaling-stroke" d="
  M 222.04 175.28
  L 221.76 176.83"
/>
</g>
<path fill="#155c81" d="
  M 504.78 59.18
  Q 489.94 64.74 481.14 77.90
  A 0.92 0.92 0.0 0 1 480.31 78.30
  C 477.52 78.06 477.30 75.80 478.21 73.62
  Q 485.64 55.61 503.96 47.58
  A 1.85 1.84 -39.5 0 1 505.76 47.75
  Q 512.71 52.55 519.18 58.58
  Q 557.46 94.29 587.85 136.83
  C 594.85 146.64 599.05 152.38 600.38 162.73
  Q 600.58 164.24 599.73 165.09
  A 0.60 0.59 54.3 0 1 598.78 164.93
  Q 596.87 161.19 594.50 157.69
  C 569.76 121.05 541.15 85.80 505.81 59.33
  Q 505.33 58.97 504.78 59.18
  Z"
/>
<path fill="#155c81" d="
  M 392.26 118.95
  L 387.70 109.51
  Q 387.47 109.05 387.00 108.82
  Q 385.70 108.21 386.23 107.30
  Q 400.57 107.92 415.75 112.74
  Q 430.26 117.36 442.48 122.57
  C 444.74 123.53 447.49 121.74 449.34 119.92
  Q 459.92 109.47 472.41 101.41
  C 478.96 97.19 485.19 98.34 490.43 103.81
  A 1.39 1.39 0.0 0 1 489.84 106.10
  Q 464.82 113.71 447.56 133.06
  Q 445.85 134.98 443.82 134.09
  Q 419.01 123.24 392.26 118.95
  Z"
/>
<path fill="#c2c2c2" d="
  M 386.23 107.30
  Q 385.70 108.21 387.00 108.82
  Q 387.47 109.05 387.70 109.51
  L 392.26 118.95
  C 388.70 120.22 386.98 118.21 383.89 118.07
  C 357.44 116.81 329.59 129.19 313.58 149.59
  C 304.65 160.97 296.15 175.13 281.73 179.77
  Q 275.81 181.68 265.48 181.41
  Q 244.14 180.85 223.23 176.35
  Q 222.71 175.65 222.04 175.28
  Q 219.46 171.67 219.05 166.10
  Q 243.41 171.61 267.24 171.11
  C 278.50 170.87 289.73 168.44 297.22 159.49
  C 305.89 149.15 315.46 136.48 324.44 128.57
  Q 349.78 106.23 386.23 107.30
  Z"
/>
<path fill="#db1218" d="
  M 219.05 166.10
  Q 219.46 171.67 222.04 175.28
  L 221.76 176.83
  Q 219.82 177.81 218.06 176.43
  C 199.53 161.90 179.27 154.76 156.30 150.49
  Q 120.31 143.80 84.26 137.46
  Q 82.89 137.22 81.47 137.25
  A 1.46 1.44 -64.9 0 0 80.58 137.58
  C 74.20 142.74 63.86 143.31 56.06 142.61
  A 0.89 0.88 2.5 0 1 55.25 141.73
  L 55.25 132.49
  A 1.10 1.09 -2.3 0 1 56.26 131.40
  Q 68.00 130.56 79.74 127.96
  Q 87.72 126.19 98.71 128.23
  Q 129.92 134.04 161.18 139.58
  Q 174.00 141.86 189.32 147.91
  Q 205.54 154.32 219.05 166.10
  Z"
/>
<path fill="#155c81" d="
  M 222.04 175.28
  Q 222.71 175.65 223.23 176.35
  Q 222.78 176.26 221.76 176.83
  L 222.04 175.28
  Z"
/>
<path fill="#404040" d="
  M 374.41 248.74
  Q 374.09 247.62 373.27 248.43
  L 351.93 269.36
  A 0.76 0.76 0.0 0 1 350.70 269.11
  L 342.35 249.15
  A 0.98 0.98 0.0 0 0 340.51 249.25
  L 333.59 273.00
  A 0.95 0.94 7.2 0 1 332.71 273.68
  L 314.99 274.23
  Q 313.58 274.27 313.99 272.92
  L 333.25 209.30
  A 0.77 0.76 8.0 0 1 333.99 208.75
  L 353.46 208.75
  A 0.89 0.89 0.0 0 1 354.33 209.44
  L 360.85 236.25
  A 0.65 0.65 0.0 0 0 361.98 236.52
  L 385.68 209.18
  A 1.44 1.40 20.1 0 1 386.75 208.70
  L 405.14 208.77
  A 0.96 0.96 0.0 0 1 406.05 210.01
  L 386.78 272.63
  A 1.58 1.57 9.1 0 1 385.25 273.73
  L 367.95 273.42
  A 0.45 0.44 8.9 0 1 367.53 272.85
  Q 370.84 261.86 374.20 250.81
  Q 374.62 249.45 374.41 248.74
  Z"
/>
<path fill="#404040" d="
  M 580.8020 215.6128
  A 37.90 27.32 -42.3 0 1 571.1567 261.3267
  A 37.90 27.32 -42.3 0 1 524.7380 266.6272
  A 37.90 27.32 -42.3 0 1 534.3833 220.9133
  A 37.90 27.32 -42.3 0 1 580.8020 215.6128
  Z
  M 564.0255 231.7699
  A 14.78 11.35 -40.1 0 0 545.4092 232.6081
  A 14.78 11.35 -40.1 0 0 541.4145 250.8101
  A 14.78 11.35 -40.1 0 0 560.0308 249.9719
  A 14.78 11.35 -40.1 0 0 564.0255 231.7699
  Z"
/>
<path fill="#404040" d="
  M 586.44 273.56
  Q 582.90 273.44 581.42 273.51
  Q 580.64 273.55 580.86 272.81
  L 585.63 256.27
  A 0.71 0.69 -81.6 0 1 586.30 255.76
  L 614.79 255.42
  A 0.94 0.94 0.0 0 0 615.67 254.77
  Q 616.08 253.48 614.81 252.44
  C 608.86 247.58 594.74 237.46 594.75 229.26
  Q 594.75 226.83 595.83 222.72
  C 598.65 212.09 601.28 209.09 612.77 208.76
  Q 631.53 208.22 649.97 208.79
  A 1.14 1.13 -80.0 0 1 651.01 210.28
  L 645.82 226.25
  A 0.65 0.65 0.0 0 1 645.21 226.71
  Q 634.06 226.84 623.11 226.73
  C 621.65 226.72 620.15 227.04 618.84 227.39
  A 1.51 1.51 0.0 0 0 618.21 229.96
  Q 627.36 238.42 636.39 246.94
  C 637.44 247.93 638.08 249.74 637.96 251.15
  C 637.35 257.85 635.23 267.80 629.06 271.58
  Q 626.42 273.20 621.11 273.46
  Q 605.35 274.23 586.44 273.56
  Z"
/>
<path fill="#404040" d="
  M 65.76 253.14
  C 60.21 247.01 45.05 238.05 45.50 229.62
  C 45.87 222.79 47.19 213.78 54.11 210.28
  Q 57.01 208.81 64.75 208.78
  Q 82.51 208.70 100.21 208.77
  A 1.35 1.34 -81.3 0 1 101.49 210.52
  L 96.70 225.60
  A 1.66 1.66 0.0 0 1 95.10 226.76
  C 90.48 226.74 71.47 225.59 68.46 227.95
  Q 68.02 228.30 68.31 228.79
  Q 69.42 230.63 70.18 231.31
  Q 83.84 243.62 87.23 247.02
  C 91.17 250.97 85.07 265.93 82.74 269.20
  Q 79.92 273.16 73.82 273.42
  Q 52.81 274.32 32.13 273.44
  A 0.74 0.74 0.0 0 1 31.45 272.49
  L 36.29 256.33
  A 0.88 0.87 7.9 0 1 37.13 255.70
  L 64.76 255.42
  A 1.37 1.36 -21.4 0 0 65.76 253.14
  Z"
/>
<path fill="#404040" d="
  M 123.94 255.94
  Q 126.22 253.78 127.75 248.62
  Q 133.53 229.23 139.43 209.90
  A 1.62 1.62 0.0 0 1 140.98 208.75
  L 156.51 208.75
  Q 159.11 208.75 158.38 211.25
  Q 150.70 237.37 142.27 263.00
  C 139.13 272.55 132.04 273.44 122.35 273.48
  Q 108.99 273.53 95.38 273.49
  A 1.54 1.54 0.0 0 1 94.07 272.73
  C 91.62 268.50 91.16 264.42 92.65 259.44
  Q 100.05 234.78 107.67 209.55
  A 1.13 1.12 8.3 0 1 108.75 208.75
  L 126.75 208.75
  A 0.77 0.77 0.0 0 1 127.49 209.75
  Q 120.83 231.47 114.19 253.48
  C 113.00 257.42 121.51 258.23 123.94 255.94
  Z"
/>
<path fill="#404040" d="
  M 211.81 209.44
  C 215.90 209.56 215.60 213.50 214.77 216.52
  Q 211.33 229.12 207.26 241.55
  C 205.28 247.58 203.84 252.21 198.34 254.11
  C 191.27 256.54 180.29 255.43 172.64 255.21
  A 2.71 2.70 9.8 0 0 170.00 257.06
  L 165.05 271.84
  A 3.04 3.03 -79.7 0 1 162.07 273.91
  L 147.17 273.38
  A 1.46 1.46 0.0 0 1 145.82 271.50
  L 164.39 209.96
  A 1.78 1.77 8.4 0 1 166.09 208.70
  Q 188.93 208.76 211.81 209.44
  Z
  M 177.58 239.67
  C 186.34 241.93 193.37 237.63 192.19 228.08
  A 0.85 0.84 -4.5 0 0 191.33 227.35
  L 179.33 227.57
  A 1.43 1.41 -86.7 0 0 177.95 228.81
  L 176.70 238.36
  A 1.19 1.18 -79.1 0 0 177.58 239.67
  Z"
/>
<path fill="#404040" d="
  M 252.69 255.82
  A 0.91 0.91 0.0 0 1 253.55 256.97
  L 249.27 272.73
  A 1.65 1.64 -81.8 0 1 247.66 273.94
  L 205.17 273.40
  A 0.92 0.91 8.7 0 1 204.30 272.22
  L 223.32 209.82
  A 0.94 0.93 -81.9 0 1 224.20 209.15
  L 266.64 208.60
  Q 267.73 208.59 267.61 209.67
  C 267.08 214.21 265.39 226.75 259.50 226.70
  Q 249.26 226.62 239.08 226.46
  A 0.91 0.90 -82.5 0 0 238.18 227.16
  L 235.82 236.86
  Q 235.58 237.85 236.59 237.83
  L 254.39 237.51
  A 0.82 0.82 0.0 0 1 255.12 237.93
  C 259.55 245.61 249.49 246.66 245.01 246.24
  Q 238.16 245.59 232.38 245.77
  Q 231.88 245.78 231.81 246.27
  L 230.55 254.83
  Q 230.47 255.43 231.07 255.44
  L 252.69 255.82
  Z"
/>
<path fill="#404040" d="
  M 281.09 255.10
  A 1.53 1.51 5.3 0 0 279.86 256.11
  L 274.33 272.23
  Q 273.87 273.60 272.42 273.63
  L 255.82 273.96
  A 0.90 0.90 0.0 0 1 254.94 272.80
  L 273.92 210.24
  A 2.08 2.07 -81.6 0 1 275.89 208.77
  Q 296.64 208.70 317.69 208.79
  C 323.15 208.81 326.11 210.39 324.53 216.29
  Q 320.90 229.80 316.15 242.93
  C 313.96 248.95 311.31 252.52 305.44 254.40
  C 303.70 254.95 303.41 255.81 303.52 257.50
  Q 304.59 273.74 305.65 289.99
  Q 305.71 290.91 305.14 291.13
  A 0.60 0.58 -25.7 0 1 304.43 290.89
  Q 294.67 274.61 284.94 258.59
  C 284.05 257.12 282.97 254.85 281.09 255.10
  Z
  M 288.95 228.21
  Q 286.25 232.45 286.01 237.39
  A 2.14 2.13 14.1 0 0 287.23 239.42
  C 294.99 243.06 303.61 236.59 301.36 227.97
  A 0.63 0.62 -7.1 0 0 300.75 227.50
  L 290.24 227.50
  A 1.53 1.53 0.0 0 0 288.95 228.21
  Z"
/>
<path fill="#404040" d="
  M 461.1238 215.7144
  A 37.85 27.31 -42.1 0 1 451.3494 261.3534
  A 37.85 27.31 -42.1 0 1 404.9562 266.4656
  A 37.85 27.31 -42.1 0 1 414.7306 220.8266
  A 37.85 27.31 -42.1 0 1 461.1238 215.7144
  Z
  M 444.2484 231.8660
  A 14.91 11.33 -39.6 0 0 425.5380 232.6401
  A 14.91 11.33 -39.6 0 0 421.2716 250.8740
  A 14.91 11.33 -39.6 0 0 439.9820 250.0999
  A 14.91 11.33 -39.6 0 0 444.2484 231.8660
  Z"
/>
<path fill="#404040" d="
  M 484.91 229.06
  L 475.01 228.59
  A 1.26 1.26 0.0 0 1 473.87 226.94
  L 479.52 209.59
  A 1.26 1.26 0.0 0 1 480.72 208.72
  L 524.32 208.82
  A 1.26 1.26 0.0 0 1 525.53 210.42
  L 520.49 228.13
  A 1.26 1.26 0.0 0 1 519.23 229.04
  L 509.51 228.64
  A 1.26 1.26 0.0 0 0 508.26 229.53
  L 494.90 273.19
  A 1.26 1.26 0.0 0 1 493.67 274.08
  L 474.58 273.74
  A 1.26 1.26 0.0 0 1 473.40 272.11
  L 486.06 230.69
  A 1.26 1.26 0.0 0 0 484.91 229.06
  Z"
/>
</svg>
