<?xml version="1.0" encoding="UTF-8" standalone="no"?>
<!DOCTYPE svg PUBLIC "-//W3C//DTD SVG 1.1//EN" "http://www.w3.org/Graphics/SVG/1.1/DTD/svg11.dtd">
<svg xmlns="http://www.w3.org/2000/svg" version="1.1" viewBox="0.00 0.00 964.00 259.00">
<g stroke-width="2.00" fill="none" stroke-linecap="butt">
<path stroke="#c4555a" vector-effect="non-scaling-stroke" d="
  M 753.13 75.70
  Q 750.85 72.26 751.84 78.53"
/>
<path stroke="#c4555a" vector-effect="non-scaling-stroke" d="
  M 257.78 198.93
  C 255.86 197.87 254.30 196.67 252.07 196.39
  C 243.51 195.32 234.64 196.11 226.15 197.43
  C 221.82 198.10 217.19 199.59 212.75 200.76
  C 177.10 210.17 142.94 230.67 104.59 219.01
  A 1.89 1.88 15.7 0 0 102.21 220.34
  L 100.43 227.24
  Q 100.32 227.67 99.91 227.84
  L 99.24 228.13"
/>
<path stroke="#c4555a" vector-effect="non-scaling-stroke" d="
  M 694.38 76.98
  L 694.04 75.77
  A 0.42 0.42 0.0 0 0 693.24 75.74
  L 692.87 76.75
  Q 692.82 76.87 692.92 76.87
  Q 693.09 76.88 693.16 76.94"
/>
</g>
<path fill="#a72c31" d="
  M 132.66 56.83
  C 145.76 46.30 160.54 41.23 177.48 43.57
  C 185.10 44.63 193.69 49.19 199.63 53.67
  Q 201.48 55.06 199.19 54.74
  C 164.96 50.04 143.77 72.29 131.41 101.12
  Q 131.22 101.56 130.78 101.35
  Q 130.68 101.31 130.57 100.98
  C 122.06 77.02 105.75 52.78 78.01 50.47
  C 57.75 48.79 38.77 61.08 34.99 81.48
  C 30.65 104.84 39.17 130.63 54.34 148.44
  C 58.17 152.95 63.29 158.52 68.06 162.33
  C 98.28 186.47 137.66 186.83 169.99 166.47
  C 178.25 161.27 186.93 155.56 195.02 151.38
  C 219.81 138.59 257.51 124.96 283.94 141.22
  Q 286.92 143.05 283.43 142.78
  Q 280.22 142.52 275.24 142.21
  C 258.14 141.13 242.30 144.65 226.97 151.75
  Q 221.17 154.43 211.43 160.53
  C 177.81 181.58 145.28 203.81 103.24 194.32
  Q 69.99 186.81 44.09 161.15
  Q 41.26 158.34 33.97 149.04
  C 16.19 126.38 6.16 96.82 10.89 68.21
  Q 13.55 52.12 25.20 40.65
  C 39.23 26.84 59.26 24.09 77.99 25.63
  C 100.42 27.47 118.29 38.83 130.60 56.53
  A 1.42 1.42 0.0 0 0 132.66 56.83
  Z"
/>
<path fill="#a72c31" d="
  M 355.73 64.15
  C 349.73 60.29 339.94 59.98 335.49 66.52
  C 331.72 72.08 334.21 79.55 340.66 81.87
  Q 347.60 84.36 354.50 86.95
  C 365.04 90.90 371.47 101.41 368.04 112.54
  C 364.19 125.07 356.58 127.59 344.75 127.99
  Q 336.24 128.28 327.74 128.20
  Q 323.48 128.16 323.52 124.25
  Q 323.62 116.12 323.75 107.99
  C 323.78 106.08 324.32 103.95 326.62 104.32
  A 2.43 2.41 0.0 0 1 328.65 106.34
  C 329.39 110.99 329.39 114.82 333.14 118.14
  C 336.78 121.36 344.75 121.91 349.27 121.17
  Q 357.56 119.82 360.01 112.98
  C 362.72 105.46 357.11 101.20 350.92 98.84
  C 342.60 95.68 332.87 93.63 328.29 85.28
  C 323.24 76.09 325.90 63.93 334.93 58.15
  C 342.12 53.56 350.83 54.10 358.99 56.27
  C 362.65 57.23 364.05 63.23 364.74 66.44
  A 2.32 2.32 0.0 0 1 362.97 69.20
  Q 361.76 69.46 360.69 68.31
  Q 358.46 65.90 355.73 64.15
  Z"
/>
<path fill="#a72c31" d="
  M 639.47 119.59
  L 639.40 105.86
  A 0.82 0.81 9.6 0 0 638.85 105.09
  L 636.41 104.26
  A 2.06 2.06 0.0 0 1 635.64 100.84
  Q 636.60 99.91 638.25 99.86
  Q 644.42 99.67 650.59 99.78
  C 652.16 99.81 654.16 99.56 655.54 100.49
  A 2.13 2.12 -38.5 0 1 655.11 104.24
  L 653.20 104.97
  A 1.94 1.94 0.0 0 0 651.95 106.80
  L 651.99 120.95
  A 2.23 2.22 -80.1 0 0 653.45 123.04
  L 655.64 123.84
  A 1.78 1.78 0.0 0 1 656.73 126.01
  Q 656.12 128.10 653.25 128.15
  Q 638.50 128.40 623.76 128.18
  C 609.24 127.96 598.74 120.90 590.99 109.28
  C 574.77 84.95 595.76 56.17 622.50 54.75
  Q 636.57 54.00 647.47 59.29
  C 649.75 60.39 651.45 66.86 651.73 69.25
  Q 651.78 69.73 651.49 70.12
  C 649.05 73.28 644.47 67.17 642.33 65.77
  Q 636.06 61.64 629.73 60.96
  C 607.45 58.54 596.18 78.02 598.28 97.75
  C 599.30 107.37 605.35 115.29 613.76 119.32
  C 620.38 122.50 630.43 122.24 638.02 121.25
  A 1.66 1.66 0.0 0 0 639.47 119.59
  Z"
/>
<path fill="#a72c31" d="
  M 685.19 97.60
  Q 679.95 109.16 675.75 121.49
  Q 675.23 123.00 676.82 125.19
  A 1.05 1.02 -54.0 0 1 676.96 126.16
  Q 676.27 128.17 673.75 128.23
  C 669.86 128.33 663.35 129.31 662.64 125.72
  A 2.01 2.01 0.0 0 1 664.44 123.33
  C 666.69 123.13 667.60 121.65 668.43 119.57
  Q 680.93 88.62 692.95 57.49
  Q 694.09 54.54 697.03 54.68
  A 1.28 1.28 0.0 0 1 697.92 55.09
  Q 699.36 56.65 700.26 58.99
  Q 709.93 83.94 724.43 118.98
  C 725.40 121.32 726.45 122.88 728.89 123.37
  A 2.27 2.25 8.2 0 1 730.70 125.77
  Q 730.53 127.94 728.24 128.04
  Q 721.13 128.36 714.01 128.35
  Q 711.27 128.35 710.81 125.91
  Q 710.71 125.40 711.00 124.97
  C 712.85 122.23 711.48 119.73 710.11 116.31
  Q 706.42 107.05 702.77 98.08
  A 1.96 1.95 -10.8 0 0 700.97 96.86
  L 686.53 96.74
  A 1.46 1.45 -77.6 0 0 685.19 97.60
  Z
  M 693.16 76.94
  L 688.45 88.92
  A 1.15 1.15 0.0 0 0 689.52 90.50
  L 697.95 90.48
  A 1.17 1.17 0.0 0 0 699.04 88.88
  L 694.38 76.98
  L 694.04 75.77
  A 0.42 0.42 0.0 0 0 693.24 75.74
  L 692.87 76.75
  Q 692.82 76.87 692.92 76.87
  Q 693.09 76.88 693.16 76.94
  Z"
/>
<path fill="#a72c31" d="
  M 832.84 76.82
  C 829.84 83.80 830.76 92.25 833.20 99.53
  Q 837.01 110.87 847.17 118.32
  C 856.41 125.09 870.65 124.07 880.63 120.10
  C 883.44 118.98 885.86 116.69 888.42 114.91
  C 889.48 114.17 891.02 113.83 891.96 114.96
  C 894.19 117.66 889.15 124.01 887.60 125.36
  C 886.28 126.51 882.71 126.92 881.46 127.22
  C 864.93 131.11 838.94 132.04 827.71 116.00
  Q 821.41 107.02 820.23 98.24
  C 818.87 88.22 822.23 76.77 828.67 68.88
  C 840.98 53.81 862.67 51.25 880.24 58.72
  C 883.38 60.05 884.31 63.87 885.17 66.81
  Q 885.88 69.23 883.96 70.29
  Q 883.52 70.53 883.04 70.42
  Q 881.47 70.08 880.71 69.34
  C 866.89 55.96 840.93 58.03 832.84 76.82
  Z"
/>
<path fill="#a72c31" d="
  M 249.34 92.34
  Q 257.11 105.70 267.29 117.69
  C 270.17 121.09 274.87 124.09 279.31 121.84
  C 281.10 120.92 285.10 118.37 286.20 121.57
  A 2.63 2.60 -35.9 0 1 285.79 124.04
  C 282.18 128.69 271.87 129.94 266.99 129.19
  C 260.50 128.19 256.77 124.18 252.68 118.48
  Q 244.65 107.30 238.52 97.50
  C 236.80 94.76 233.45 95.43 230.67 95.53
  A 1.70 1.70 0.0 0 0 229.03 97.23
  L 229.03 121.51
  A 1.16 1.15 -68.6 0 0 229.39 122.35
  C 230.44 123.35 232.02 123.31 232.88 124.14
  C 234.07 125.30 233.67 126.97 232.20 127.70
  Q 231.19 128.20 230.00 128.20
  Q 222.31 128.19 214.62 128.09
  Q 212.47 128.07 211.90 125.98
  A 1.75 1.75 0.0 0 1 212.98 123.88
  L 215.68 122.86
  A 1.61 1.59 -10.2 0 0 216.72 121.38
  Q 217.00 92.87 216.83 63.99
  Q 216.81 60.81 213.54 60.53
  A 1.63 1.62 -87.3 0 1 212.06 58.90
  L 212.07 58.44
  A 2.41 2.41 0.0 0 1 214.41 56.05
  Q 231.06 55.57 242.00 56.00
  C 252.23 56.41 260.05 62.61 259.66 73.50
  C 259.37 81.56 255.36 86.23 249.55 91.14
  A 0.95 0.94 55.0 0 0 249.34 92.34
  Z
  M 229.01 63.53
  L 229.05 88.17
  A 1.28 1.28 0.0 0 0 230.33 89.44
  L 235.34 89.44
  A 12.79 12.63 -0.1 0 0 248.11 76.78
  L 248.11 74.84
  A 12.79 12.63 -0.1 0 0 235.30 62.24
  L 230.29 62.24
  A 1.28 1.28 0.0 0 0 229.01 63.53
  Z"
/>
<path fill="#a72c31" d="
  M 296.95 122.90
  A 1.45 1.44 82.9 0 0 297.95 121.61
  Q 298.12 118.90 298.14 116.00
  Q 298.34 90.50 298.18 65.00
  C 298.15 59.82 296.17 61.97 293.84 59.62
  Q 292.57 58.34 293.87 56.90
  Q 294.88 55.79 297.12 55.77
  Q 303.66 55.70 310.21 55.81
  C 311.85 55.84 313.85 55.65 314.96 56.91
  A 2.10 2.09 60.9 0 1 314.00 60.29
  L 312.19 60.85
  A 2.45 2.45 0.0 0 0 310.46 63.19
  L 310.47 121.10
  A 1.96 1.96 0.0 0 0 311.84 122.97
  L 314.46 123.79
  A 1.70 1.69 -77.3 0 1 315.63 125.65
  Q 315.27 128.30 311.50 128.31
  Q 303.88 128.32 296.26 128.12
  Q 293.66 128.06 293.34 125.95
  A 2.17 2.16 -13.1 0 1 294.83 123.56
  L 296.95 122.90
  Z"
/>
<path fill="#a72c31" d="
  M 428.79 87.94
  A 0.84 0.84 0.0 0 0 429.64 88.78
  Q 438.04 88.67 446.50 88.59
  Q 449.17 88.56 451.09 87.02
  A 2.31 2.31 0.0 0 1 453.97 87.02
  C 456.28 88.87 455.63 99.91 451.25 96.53
  C 449.82 95.42 448.50 94.80 446.57 94.84
  Q 438.31 94.99 430.26 94.66
  A 1.36 1.36 0.0 0 0 428.84 96.03
  L 429.00 118.15
  Q 429.02 121.72 432.59 121.84
  Q 442.05 122.17 451.50 121.89
  Q 454.25 121.81 455.86 121.10
  A 1.07 1.06 87.6 0 0 456.46 120.44
  L 457.64 116.52
  A 2.06 2.06 0.0 0 1 459.12 115.12
  Q 462.22 114.34 462.52 117.50
  C 462.84 120.93 464.19 128.42 458.75 128.41
  Q 436.88 128.35 415.00 128.15
  Q 412.63 128.13 411.96 126.25
  A 2.08 2.07 70.2 0 1 413.20 123.60
  L 415.25 122.85
  A 1.95 1.95 0.0 0 0 416.53 121.02
  L 416.55 63.28
  A 2.59 2.59 0.0 0 0 414.21 60.69
  Q 412.16 60.49 411.92 58.44
  A 2.10 2.09 83.1 0 1 413.73 56.12
  Q 415.82 55.85 417.75 55.85
  Q 436.63 55.86 455.50 55.90
  Q 458.79 55.91 458.90 59.37
  C 458.98 61.68 459.53 67.60 456.91 68.53
  A 2.42 2.41 -18.8 0 1 453.82 67.02
  L 452.64 63.49
  A 2.08 2.08 0.0 0 0 450.68 62.07
  L 429.61 62.04
  A 0.74 0.74 0.0 0 0 428.87 62.77
  L 428.79 87.94
  Z"
/>
<path fill="#a72c31" d="
  M 471.04 61.29
  L 468.15 60.26
  A 1.68 1.68 0.0 0 1 467.15 58.07
  Q 467.85 56.26 470.01 56.15
  Q 477.87 55.75 485.75 55.89
  Q 487.83 55.93 488.81 56.91
  A 2.01 2.00 -32.7 0 1 488.09 60.21
  L 485.71 61.09
  A 2.05 2.05 0.0 0 0 484.36 63.02
  Q 484.28 87.68 484.35 111.75
  C 484.37 116.21 485.32 121.24 490.75 121.69
  Q 496.74 122.18 502.75 122.16
  C 511.73 122.11 512.35 116.72 513.30 109.08
  A 1.85 1.85 0.0 0 1 515.18 107.46
  L 515.76 107.47
  A 2.54 2.54 0.0 0 1 518.24 110.01
  L 518.25 124.74
  Q 518.25 128.23 514.75 128.25
  Q 492.38 128.32 470.26 128.17
  Q 468.09 128.15 467.31 126.32
  A 2.05 2.04 69.6 0 1 468.57 123.56
  L 471.06 122.78
  Q 471.59 122.61 471.76 122.09
  Q 472.09 121.14 472.10 119.75
  Q 472.29 92.63 472.23 65.50
  Q 472.23 63.77 471.76 62.07
  Q 471.60 61.49 471.04 61.29
  Z"
/>
<path fill="#a72c31" d="
  M 545.08 87.90
  A 0.86 0.85 89.7 0 0 545.94 88.76
  Q 554.82 88.63 564.01 88.55
  C 565.85 88.53 567.22 86.54 568.92 86.52
  C 572.23 86.48 571.54 93.22 571.17 95.00
  Q 570.75 96.99 568.62 97.20
  A 1.10 1.09 62.2 0 1 567.79 96.94
  C 566.29 95.64 565.32 94.86 563.20 94.87
  Q 554.72 94.90 546.43 94.73
  A 1.29 1.28 0.4 0 0 545.12 96.01
  Q 545.10 105.00 545.09 113.75
  Q 545.09 117.12 545.69 119.96
  A 1.80 1.79 -88.7 0 0 546.99 121.33
  Q 549.69 122.02 552.50 122.05
  Q 562.67 122.16 570.00 121.77
  C 573.04 121.61 573.16 118.80 573.73 116.59
  A 2.02 2.01 0.5 0 1 575.22 115.13
  C 580.22 113.95 579.12 121.97 578.96 124.76
  Q 578.77 128.16 575.25 128.19
  Q 553.62 128.33 532.00 128.43
  Q 529.96 128.44 528.75 127.21
  A 2.21 2.21 0.0 0 1 529.61 123.57
  L 531.69 122.85
  A 1.62 1.62 0.0 0 0 532.77 121.32
  Q 532.81 93.76 532.76 66.45
  C 532.75 63.41 532.99 60.66 529.48 60.43
  A 1.61 1.61 0.0 0 1 528.05 58.32
  Q 528.77 56.08 531.00 56.05
  Q 551.25 55.77 571.50 55.92
  Q 574.54 55.94 574.84 58.75
  Q 575.44 64.27 575.01 66.50
  C 574.54 68.95 570.96 69.56 569.98 66.75
  Q 569.40 65.05 568.77 63.34
  Q 568.59 62.85 568.12 62.62
  Q 566.93 62.07 565.24 62.08
  Q 555.62 62.12 546.33 62.04
  A 1.21 1.21 0.0 0 0 545.11 63.25
  L 545.08 87.90
  Z"
/>
<path fill="#a72c31" d="
  M 753.13 75.70
  Q 750.85 72.26 751.84 78.53
  L 752.05 121.21
  A 1.57 1.57 0.0 0 0 753.07 122.68
  C 754.70 123.31 757.25 124.17 756.40 126.58
  A 2.47 2.47 0.0 0 1 754.11 128.23
  Q 748.25 128.34 742.25 128.29
  Q 739.74 128.27 739.19 125.99
  A 2.08 2.08 0.0 0 1 740.67 123.50
  L 742.88 122.89
  A 2.00 1.99 -7.5 0 0 744.35 120.98
  Q 744.60 95.94 744.29 71.25
  C 744.24 67.60 744.29 62.32 740.08 61.19
  C 738.19 60.69 733.93 60.45 735.58 57.09
  A 2.10 2.09 11.9 0 1 737.38 55.92
  C 741.34 55.78 750.03 54.75 752.89 57.95
  C 760.09 66.01 766.94 72.69 775.07 81.70
  Q 783.99 91.57 793.51 100.88
  C 794.57 101.92 795.63 103.69 797.05 104.74
  A 0.91 0.91 0.0 0 0 798.51 104.01
  L 798.50 63.14
  A 2.17 2.17 0.0 0 0 797.15 61.13
  L 795.06 60.28
  A 2.04 2.04 0.0 0 1 795.17 56.47
  C 798.08 55.47 801.90 55.77 806.50 55.80
  C 808.10 55.81 810.26 55.93 810.85 57.67
  C 811.69 60.18 809.22 60.68 807.54 61.17
  A 2.13 2.12 -8.2 0 0 806.01 63.21
  Q 805.97 94.25 805.85 125.00
  Q 805.84 127.69 804.13 128.49
  A 1.93 1.93 0.0 0 1 801.89 128.05
  L 753.13 75.70
  Z"
/>
<path fill="#a72c31" d="
  M 917.63 95.35
  Q 917.47 95.71 917.46 96.26
  C 917.27 103.92 916.57 112.41 917.87 119.97
  A 1.89 1.88 -89.6 0 0 919.38 121.51
  C 926.10 122.79 934.85 122.02 941.75 121.78
  C 947.13 121.60 944.08 114.00 948.75 114.94
  C 952.13 115.62 951.07 123.05 951.00 125.59
  A 2.45 2.45 0.0 0 1 948.88 127.95
  Q 947.41 128.15 945.75 128.17
  Q 924.25 128.35 902.75 128.15
  Q 900.37 128.13 900.06 125.71
  A 1.97 1.96 -12.6 0 1 901.41 123.59
  L 903.95 122.79
  A 1.41 1.40 81.2 0 0 904.93 121.45
  Q 905.02 93.36 904.94 65.35
  C 904.93 62.91 904.89 60.68 901.97 60.44
  A 1.84 1.83 -76.4 0 1 900.43 57.91
  C 901.06 56.37 902.06 55.86 903.78 55.86
  Q 924.01 55.80 944.00 55.93
  Q 947.20 55.95 947.25 59.16
  C 947.29 61.67 948.34 68.96 944.09 68.75
  A 1.66 1.65 79.0 0 1 942.67 67.78
  L 940.74 63.57
  A 2.69 2.69 0.0 0 0 938.30 62.01
  L 918.49 62.03
  A 1.23 1.23 0.0 0 0 917.26 63.26
  L 917.24 87.52
  A 1.21 1.21 0.0 0 0 918.45 88.73
  Q 926.39 88.71 934.62 88.65
  C 937.11 88.63 937.80 88.07 939.75 86.80
  Q 941.12 85.91 942.25 86.68
  C 944.24 88.05 943.54 94.02 943.01 95.93
  A 1.90 1.90 0.0 0 1 939.84 96.77
  C 938.39 95.33 936.69 94.84 934.54 94.83
  Q 926.50 94.81 918.62 94.73
  A 1.08 1.07 12.6 0 0 917.63 95.35
  Z"
/>
<path fill="#e07e82" d="
  M 753.13 75.70
  Q 751.87 76.35 751.84 78.53
  Q 750.85 72.26 753.13 75.70
  Z"
/>
<path fill="#e07e82" d="
  M 694.38 76.98
  Q 694.20 76.58 693.79 76.62
  Q 693.37 76.65 693.16 76.94
  Q 693.09 76.88 692.92 76.87
  Q 692.82 76.87 692.87 76.75
  L 693.24 75.74
  A 0.42 0.42 0.0 0 1 694.04 75.77
  L 694.38 76.98
  Z"
/>
<rect fill="#000000" x="-1.95" y="-17.42" transform="translate(767.77,156.83) rotate(-0.1)" width="3.90" height="34.84" rx="1.29"/>
<path fill="#000000" d="
  M 572.11 154.78
  A 0.98 0.96 59.5 0 0 572.22 154.33
  L 572.28 140.57
  A 1.16 1.15 1.9 0 1 573.51 139.42
  L 574.79 139.50
  Q 576.24 139.59 576.23 141.04
  L 576.08 173.23
  Q 576.08 174.05 575.27 174.21
  Q 573.16 174.63 572.20 172.81
  A 0.76 0.76 0.0 0 0 571.00 172.62
  C 566.00 177.50 557.98 174.57 556.08 168.24
  C 553.51 159.67 558.45 151.47 568.26 153.49
  C 569.73 153.79 570.05 155.00 571.08 155.34
  Q 571.72 155.56 572.11 154.78
  Z
  M 566.3451 171.8621
  A 7.72 6.67 86.1 0 0 572.4746 163.7063
  A 7.72 6.67 86.1 0 0 565.2949 156.4579
  A 7.72 6.67 86.1 0 0 559.1654 164.6137
  A 7.72 6.67 86.1 0 0 566.3451 171.8621
  Z"
/>
<path fill="#000000" d="
  M 629.64 172.89
  Q 621.52 177.66 616.54 171.61
  C 612.80 167.07 612.96 158.34 618.08 154.76
  C 621.28 152.52 626.05 152.33 629.41 155.14
  A 0.82 0.82 0.0 0 0 630.75 154.51
  L 630.70 141.02
  Q 630.69 139.49 632.23 139.46
  L 633.23 139.44
  Q 634.81 139.40 634.80 140.98
  L 634.62 172.90
  A 1.59 1.59 0.0 0 1 632.07 174.16
  L 630.45 172.94
  Q 630.06 172.64 629.64 172.89
  Z
  M 624.7596 171.9064
  A 7.75 6.62 86.6 0 0 630.9083 163.7774
  A 7.75 6.62 86.6 0 0 623.8404 156.4336
  A 7.75 6.62 86.6 0 0 617.6917 164.5626
  A 7.75 6.62 86.6 0 0 624.7596 171.9064
  Z"
/>
<circle fill="#000000" cx="488.63" cy="143.94" r="2.62"/>
<path fill="#000000" d="
  M 707.42 165.00
  L 709.97 161.33
  Q 710.76 160.21 711.62 161.28
  L 712.43 162.27
  Q 713.36 163.43 712.37 164.54
  L 709.82 167.42
  A 1.42 1.41 45.2 0 0 709.82 169.31
  L 713.67 173.61
  A 0.30 0.29 -29.0 0 1 713.53 174.09
  Q 709.24 175.30 707.17 171.63
  A 1.03 1.02 53.9 0 0 705.58 171.38
  C 693.40 182.61 677.68 166.23 693.19 155.66
  A 0.70 0.70 0.0 0 0 693.35 154.67
  C 691.35 152.00 689.88 149.05 691.17 145.76
  C 695.28 135.25 714.95 144.67 700.94 156.12
  A 1.28 1.28 0.0 0 0 700.74 157.90
  L 706.29 165.02
  A 0.70 0.70 0.0 0 0 707.42 165.00
  Z
  M 695.43 150.55
  Q 696.04 151.70 696.76 152.56
  Q 697.76 153.76 699.07 152.92
  C 701.27 151.51 702.97 148.32 701.03 146.02
  C 698.22 142.69 693.15 146.27 695.43 150.55
  Z
  M 703.33 167.13
  L 696.88 159.31
  A 1.09 1.09 0.0 0 0 695.35 159.16
  L 693.82 160.42
  A 7.21 6.07 -39.5 0 0 692.12 169.69
  L 692.23 169.83
  A 7.21 6.07 -39.5 0 0 701.66 169.93
  L 703.18 168.67
  A 1.09 1.09 0.0 0 0 703.33 167.13
  Z"
/>
<circle fill="#000000" cx="919.16" cy="143.98" r="2.67"/>
<circle fill="#000000" cx="544.57" cy="144.01" r="2.63"/>
<path fill="#000000" d="
  M 307.21 171.34
  L 307.23 173.38
  A 0.87 0.87 0.0 0 1 306.35 174.26
  L 291.71 174.24
  A 0.87 0.87 0.0 0 1 290.84 173.37
  L 290.75 142.87
  A 0.87 0.87 0.0 0 1 291.60 142.00
  L 294.13 141.95
  A 0.87 0.87 0.0 0 1 295.02 142.82
  L 295.02 169.54
  A 0.87 0.87 0.0 0 0 295.89 170.41
  L 306.35 170.48
  A 0.87 0.87 0.0 0 1 307.21 171.34
  Z"
/>
<rect fill="#000000" x="-2.12" y="-16.13" transform="translate(429.95,158.11) rotate(0.1)" width="4.24" height="32.26" rx="1.15"/>
<path fill="#000000" d="
  M 744.01 170.46
  L 755.39 170.48
  A 0.87 0.87 0.0 0 1 756.25 171.29
  L 756.39 173.34
  A 0.87 0.87 0.0 0 1 755.52 174.27
  L 739.84 174.25
  A 0.87 0.87 0.0 0 1 738.98 173.39
  L 738.82 142.84
  A 0.87 0.87 0.0 0 1 739.70 141.96
  L 755.62 141.98
  A 0.87 0.87 0.0 0 1 756.49 142.84
  L 756.51 145.13
  A 0.87 0.87 0.0 0 1 755.64 146.01
  L 744.02 145.98
  A 0.87 0.87 0.0 0 0 743.15 146.87
  L 743.26 153.40
  A 0.87 0.87 0.0 0 0 744.11 154.25
  L 755.59 154.41
  A 0.87 0.87 0.0 0 1 756.45 155.30
  L 756.37 158.10
  A 0.87 0.87 0.0 0 1 755.50 158.95
  L 743.97 158.92
  A 0.87 0.87 0.0 0 0 743.10 159.79
  L 743.14 169.59
  A 0.87 0.87 0.0 0 0 744.01 170.46
  Z"
/>
<path fill="#000000" d="
  M 845.14 147.15
  L 842.88 150.09
  A 2.36 2.35 18.1 0 1 841.05 151.01
  L 840.50 151.02
  Q 839.13 151.04 839.75 149.82
  C 840.79 147.78 842.60 143.50 845.01 143.06
  C 848.87 142.36 850.43 147.06 852.06 149.67
  A 0.82 0.82 0.0 0 1 851.68 150.86
  L 851.36 150.99
  A 2.03 2.02 61.6 0 1 848.91 150.25
  L 846.84 147.20
  A 1.05 1.05 0.0 0 0 845.14 147.15
  Z"
/>
<path fill="#000000" d="
  M 476.00 157.88
  L 475.98 172.65
  Q 475.98 174.28 474.35 174.42
  L 473.82 174.47
  A 1.34 1.33 -3.5 0 1 472.37 173.19
  L 471.85 157.75
  A 0.87 0.87 0.0 0 0 471.21 156.94
  Q 470.32 156.68 469.39 156.78
  A 0.87 0.86 73.6 0 1 468.53 156.30
  Q 467.99 155.22 468.67 154.18
  A 0.85 0.84 -68.7 0 1 469.50 153.81
  Q 470.39 153.95 471.22 153.64
  A 0.90 0.89 -9.1 0 0 471.80 152.85
  L 472.14 146.82
  A 1.42 1.42 0.0 0 1 473.67 145.48
  L 474.15 145.51
  A 1.92 1.92 0.0 0 1 475.92 147.39
  L 476.02 152.49
  A 1.16 1.12 -71.7 0 0 476.44 153.36
  Q 477.25 154.01 478.29 153.99
  Q 479.48 153.96 479.47 155.14
  L 479.47 155.52
  Q 479.47 156.66 478.33 156.72
  Q 477.28 156.78 476.39 157.24
  Q 476.00 157.44 476.00 157.88
  Z"
/>
<path fill="#000000" d="
  M 505.04 155.05
  A 0.56 0.56 0.0 0 0 505.83 155.20
  Q 512.16 150.72 517.95 155.86
  A 1.02 1.02 0.0 0 0 519.36 155.81
  Q 523.04 151.96 528.52 153.52
  C 532.08 154.53 532.90 157.92 532.97 161.52
  Q 533.08 167.43 532.94 173.01
  Q 532.91 174.44 531.48 174.45
  L 530.71 174.45
  Q 529.32 174.46 529.33 173.07
  C 529.34 169.21 530.41 158.71 526.04 156.75
  C 522.50 155.17 519.26 158.68 519.04 162.26
  Q 518.70 167.79 518.56 173.14
  A 1.28 1.28 0.0 0 1 517.38 174.38
  L 516.47 174.46
  Q 515.28 174.57 515.31 173.37
  Q 515.44 168.06 514.95 162.27
  C 514.22 153.78 505.45 155.20 504.77 162.00
  Q 504.35 166.31 504.52 173.23
  Q 504.55 174.59 503.20 174.56
  L 502.49 174.55
  Q 501.22 174.52 501.19 173.24
  L 500.85 154.56
  Q 500.84 154.06 501.32 153.90
  Q 503.74 153.08 505.04 155.05
  Z"
/>
<path fill="#000000" d="
  M 600.66 172.67
  C 596.89 175.99 591.21 175.68 587.85 172.11
  C 584.54 168.59 584.51 163.21 586.11 158.78
  C 588.43 152.33 595.93 151.64 600.88 155.21
  A 0.59 0.58 38.2 0 0 601.67 155.12
  L 602.60 154.03
  A 1.04 1.00 -69.7 0 1 603.35 153.67
  Q 604.43 153.64 605.46 153.97
  A 0.80 0.80 0.0 0 1 606.01 154.73
  L 605.96 173.26
  A 0.78 0.78 0.0 0 1 605.48 173.98
  Q 604.24 174.50 602.94 174.16
  A 1.15 1.14 85.8 0 1 602.15 173.47
  Q 601.95 172.99 601.55 172.66
  Q 601.10 172.28 600.66 172.67
  Z
  M 595.8138 171.9072
  A 7.71 6.60 86.7 0 0 601.9591 163.8301
  A 7.71 6.60 86.7 0 0 594.9262 156.5128
  A 7.71 6.60 86.7 0 0 588.7809 164.5899
  A 7.71 6.60 86.7 0 0 595.8138 171.9072
  Z"
/>
<path fill="#000000" d="
  M 850.16 172.75
  C 845.73 175.25 841.58 176.31 837.67 172.54
  C 829.37 164.54 837.88 146.40 849.84 155.10
  Q 850.27 155.42 850.77 155.23
  Q 851.30 155.04 851.63 154.56
  Q 851.94 154.11 852.45 153.89
  Q 853.60 153.41 854.62 153.93
  Q 855.09 154.16 855.09 154.69
  L 855.08 173.29
  A 0.81 0.79 -14.6 0 1 854.66 173.99
  C 853.36 174.72 852.25 174.24 851.42 173.12
  Q 851.26 172.91 851.04 172.77
  Q 850.61 172.50 850.16 172.75
  Z
  M 845.2573 171.9271
  A 7.77 6.57 86.7 0 0 851.3691 163.7918
  A 7.77 6.57 86.7 0 0 844.3627 156.4129
  A 7.77 6.57 86.7 0 0 838.2509 164.5482
  A 7.77 6.57 86.7 0 0 845.2573 171.9271
  Z"
/>
<path fill="#000000" d="
  M 385.7011 166.0147
  A 11.10 10.94 10.3 0 1 372.8239 174.7937
  A 11.10 10.94 10.3 0 1 363.8589 162.0453
  A 11.10 10.94 10.3 0 1 376.7361 153.2663
  A 11.10 10.94 10.3 0 1 385.7011 166.0147
  Z
  M 374.4642 171.7839
  A 7.62 7.26 92.3 0 0 382.0242 164.4614
  A 7.62 7.26 92.3 0 0 375.0758 156.5561
  A 7.62 7.26 92.3 0 0 367.5158 163.8786
  A 7.62 7.26 92.3 0 0 374.4642 171.7839
  Z"
/>
<path fill="#000000" d="
  M 447.70 154.80
  C 452.47 152.10 460.45 152.26 461.15 159.29
  Q 461.55 163.33 461.07 173.02
  Q 460.99 174.61 459.41 174.48
  L 458.97 174.45
  Q 457.68 174.35 457.66 173.06
  C 457.60 169.08 459.20 153.14 450.24 156.87
  C 444.99 159.05 446.31 168.50 446.28 173.18
  Q 446.27 174.20 445.25 174.22
  L 443.73 174.25
  Q 442.69 174.27 442.68 173.23
  L 442.48 154.79
  A 1.02 1.01 85.1 0 1 443.33 153.77
  Q 445.30 153.45 446.74 154.70
  Q 447.19 155.09 447.70 154.80
  Z"
/>
<path fill="#000000" d="
  M 647.16 165.49
  Q 646.75 167.69 648.31 169.25
  Q 653.99 174.96 660.20 168.16
  A 1.24 1.24 0.0 0 1 662.18 168.35
  L 662.33 168.60
  Q 663.18 170.03 661.97 171.17
  Q 656.61 176.22 650.94 174.66
  C 639.34 171.48 641.35 152.08 654.42 153.22
  Q 663.19 153.99 663.14 164.17
  A 0.88 0.88 0.0 0 1 662.26 165.04
  L 647.76 164.99
  Q 647.25 164.98 647.16 165.49
  Z
  M 652.11 156.24
  A 1.37 1.37 0.0 0 0 650.99 156.58
  L 647.91 159.37
  A 1.37 1.37 0.0 0 0 648.83 161.76
  L 657.82 161.77
  A 1.37 1.37 0.0 0 0 658.92 159.59
  L 657.33 157.43
  A 1.37 1.37 0.0 0 0 656.43 156.89
  L 652.11 156.24
  Z"
/>
<path fill="#000000" d="
  M 782.45 166.02
  C 782.50 168.45 784.08 170.34 786.36 171.19
  Q 791.26 173.03 795.01 168.28
  A 1.44 1.44 0.0 0 1 796.92 167.96
  L 797.25 168.18
  Q 798.77 169.17 797.57 170.53
  Q 792.31 176.52 785.92 174.60
  C 774.23 171.08 777.08 152.19 789.17 153.11
  C 795.66 153.61 798.24 157.86 798.30 164.00
  A 1.05 1.05 0.0 0 1 797.24 165.06
  L 783.47 164.98
  A 1.02 1.02 0.0 0 0 782.45 166.02
  Z
  M 782.93 161.74
  L 794.13 161.82
  A 0.17 0.17 0.0 0 0 794.30 161.65
  L 794.30 161.60
  A 5.32 5.12 0.4 0 0 789.02 156.44
  L 788.12 156.44
  A 5.32 5.12 0.4 0 0 782.76 161.52
  L 782.76 161.57
  A 0.17 0.17 0.0 0 0 782.93 161.74
  Z"
/>
<path fill="#000000" d="
  M 821.92 176.11
  L 822.06 174.20
  Q 822.25 171.57 820.16 173.17
  C 814.05 177.85 806.01 173.34 805.25 166.00
  C 804.76 161.21 806.03 155.56 811.05 153.72
  Q 816.18 151.84 820.88 155.28
  A 0.57 0.57 0.0 0 0 821.71 155.11
  Q 822.78 153.20 824.94 153.82
  A 1.30 1.29 8.4 0 1 825.89 155.09
  Q 825.73 164.53 825.64 173.99
  C 825.61 177.34 825.32 180.10 822.44 182.14
  C 817.13 185.89 807.72 185.06 805.72 177.76
  Q 805.25 176.06 807.01 175.97
  L 807.57 175.94
  A 2.12 2.12 0.0 0 1 809.69 177.35
  C 811.12 181.45 816.12 181.68 819.28 180.08
  A 4.85 4.85 0.0 0 0 821.92 176.11
  Z
  M 815.6941 171.9314
  A 7.73 6.70 87.3 0 0 822.0226 163.8944
  A 7.73 6.70 87.3 0 0 814.9659 156.4886
  A 7.73 6.70 87.3 0 0 808.6374 164.5256
  A 7.73 6.70 87.3 0 0 815.6941 171.9314
  Z"
/>
<path fill="#000000" d="
  M 869.92 155.26
  C 875.06 151.27 883.59 152.65 883.61 160.51
  Q 883.62 166.85 883.65 172.73
  Q 883.66 174.11 882.29 174.25
  L 881.31 174.36
  A 1.41 1.40 -2.4 0 1 879.76 172.94
  C 879.84 168.39 881.80 154.78 873.50 156.51
  C 867.08 157.85 868.77 168.34 868.76 173.16
  Q 868.76 174.45 867.47 174.39
  L 866.26 174.32
  Q 865.01 174.26 865.00 173.01
  L 864.91 154.51
  A 0.69 0.67 -10.8 0 1 865.35 153.88
  Q 867.83 152.98 868.97 155.06
  A 0.64 0.64 0.0 0 0 869.92 155.26
  Z"
/>
<path fill="#000000" d="
  M 907.48 157.82
  C 898.82 152.57 891.52 163.65 897.90 170.10
  Q 901.33 173.57 907.67 170.07
  Q 909.26 169.20 909.20 171.01
  L 909.17 171.86
  Q 909.12 173.56 907.53 174.17
  Q 903.50 175.69 899.26 174.71
  C 886.44 171.75 890.16 148.70 907.28 153.82
  A 2.33 2.32 -82.0 0 1 908.93 156.02
  L 908.94 156.99
  Q 908.97 158.72 907.48 157.82
  Z"
/>
<path fill="#000000" d="
  M 945.82 172.79
  C 934.18 180.59 926.83 167.01 931.95 157.21
  C 934.68 152.00 941.85 152.25 945.85 155.26
  A 0.69 0.68 34.0 0 0 946.85 155.07
  Q 947.83 153.45 949.84 153.71
  A 1.32 1.32 0.0 0 1 950.99 155.03
  L 950.97 172.98
  A 1.24 1.23 -17.3 0 1 950.43 174.00
  C 948.70 175.20 947.94 173.71 946.66 172.80
  Q 946.25 172.50 945.82 172.79
  Z
  M 940.9225 171.9356
  A 7.74 6.60 86.5 0 0 947.0377 163.8071
  A 7.74 6.60 86.5 0 0 939.9775 156.4844
  A 7.74 6.60 86.5 0 0 933.8623 164.6129
  A 7.74 6.60 86.5 0 0 940.9225 171.9356
  Z"
/>
<path fill="#000000" d="
  M 325.68 171.16
  C 329.37 169.93 328.23 158.21 328.15 154.92
  Q 328.12 153.70 329.34 153.74
  L 330.79 153.79
  Q 332.00 153.83 332.01 155.04
  C 332.05 159.08 333.09 168.95 330.18 172.09
  C 324.70 177.99 313.43 175.16 313.29 166.25
  Q 313.21 160.80 313.40 155.04
  Q 313.44 153.72 314.76 153.70
  L 315.98 153.69
  Q 317.22 153.67 317.19 154.91
  Q 317.12 159.00 317.14 163.30
  C 317.17 169.09 318.79 173.47 325.68 171.16
  Z"
/>
<path fill="#000000" d="
  M 348.98 160.80
  L 353.12 153.95
  A 0.58 0.58 0.0 0 1 353.62 153.67
  L 357.16 153.72
  A 0.58 0.58 0.0 0 1 357.61 154.65
  L 350.76 163.73
  A 0.58 0.58 0.0 0 0 350.76 164.44
  L 357.80 173.42
  A 0.58 0.58 0.0 0 1 357.31 174.36
  L 353.87 174.18
  A 0.58 0.58 0.0 0 1 353.42 173.93
  L 348.93 167.26
  A 0.58 0.58 0.0 0 0 347.98 167.25
  L 343.25 174.08
  A 0.58 0.58 0.0 0 1 342.76 174.33
  L 339.60 174.26
  A 0.58 0.58 0.0 0 1 339.15 173.32
  L 345.90 164.53
  A 0.58 0.58 0.0 0 0 345.91 163.84
  L 339.34 154.64
  A 0.58 0.58 0.0 0 1 339.81 153.72
  L 343.14 153.72
  A 0.58 0.58 0.0 0 1 343.63 153.99
  L 348.00 160.81
  A 0.58 0.58 0.0 0 0 348.98 160.80
  Z"
/>
<rect fill="#000000" x="-1.75" y="-10.31" transform="translate(488.74,164.10) rotate(0.1)" width="3.50" height="20.62" rx="0.87"/>
<rect fill="#000000" x="542.76" y="153.75" width="3.76" height="20.52" rx="0.92"/>
<rect fill="#000000" x="-1.85" y="-10.27" transform="translate(919.23,163.99) rotate(-0.1)" width="3.70" height="20.54" rx="1.02"/>
<path fill="#000000" d="
  M 400.76 170.04
  A 0.82 0.82 0.0 0 1 401.21 171.11
  L 400.12 173.79
  A 9.59 1.04 -67.9 0 1 395.55 182.28
  L 393.86 181.60
  A 9.59 1.04 -67.9 0 1 396.51 172.32
  L 397.60 169.64
  A 0.82 0.82 0.0 0 1 398.66 169.19
  L 400.76 170.04
  Z"
/>
<path fill="#e07e82" d="
  M 257.78 198.93
  C 255.86 197.87 254.30 196.67 252.07 196.39
  C 243.51 195.32 234.64 196.11 226.15 197.43
  C 221.82 198.10 217.19 199.59 212.75 200.76
  C 177.10 210.17 142.94 230.67 104.59 219.01
  A 1.89 1.88 15.7 0 0 102.21 220.34
  L 100.43 227.24
  Q 100.32 227.67 99.91 227.84
  L 99.24 228.13
  C 72.81 219.70 52.91 199.81 45.72 171.32
  Q 45.36 169.91 46.36 170.97
  Q 54.74 179.90 64.33 187.69
  C 83.81 203.52 105.08 212.67 130.25 212.49
  C 153.67 212.32 177.10 205.73 199.35 198.48
  C 219.11 192.03 241.56 190.18 261.63 196.59
  Q 263.98 197.34 265.67 198.52
  Q 267.08 199.51 265.36 199.40
  L 257.78 198.93
  Z"
/>
<path fill="#a72c31" d="
  M 257.78 198.93
  Q 251.01 198.24 244.25 198.71
  C 217.76 200.55 197.08 210.04 174.38 220.85
  C 162.28 226.61 148.87 231.48 135.84 232.60
  Q 117.32 234.18 99.24 228.13
  L 99.91 227.84
  Q 100.32 227.67 100.43 227.24
  L 102.21 220.34
  A 1.89 1.88 15.7 0 1 104.59 219.01
  C 142.94 230.67 177.10 210.17 212.75 200.76
  C 217.19 199.59 221.82 198.10 226.15 197.43
  C 234.64 196.11 243.51 195.32 252.07 196.39
  C 254.30 196.67 255.86 197.87 257.78 198.93
  Z"
/>
</svg>
