<?xml version="1.0" encoding="UTF-8" standalone="no"?>
<!DOCTYPE svg PUBLIC "-//W3C//DTD SVG 1.1//EN" "http://www.w3.org/Graphics/SVG/1.1/DTD/svg11.dtd">
<svg xmlns="http://www.w3.org/2000/svg" version="1.1" viewBox="0.00 0.00 946.00 495.00">
<g stroke-width="3.10" fill="none" stroke-linecap="butt">
<path stroke="#8baec0" vector-effect="non-scaling-stroke" d="
  M 658.15 107.11
  C 667.18 94.55 676.75 86.16 690.95 81.12
  A 1.95 1.93 53.1 0 1 692.76 81.39
  C 740.76 117.16 778.67 164.89 812.67 213.61
  C 815.50 217.66 817.65 221.66 819.75 225.95
  A 0.87 0.87 0.0 0 0 821.38 225.74
  Q 821.42 225.53 821.43 225.24
  C 821.65 211.75 815.63 202.61 807.24 190.92
  C 782.68 156.73 756.46 124.76 726.50 95.13
  C 714.10 82.88 705.09 74.11 692.47 65.62
  A 2.86 2.86 0.0 0 0 689.75 65.36
  C 674.08 72.10 660.35 85.14 654.53 101.56
  C 653.53 104.41 654.12 106.84 657.33 107.44
  A 0.83 0.81 -66.3 0 0 658.15 107.11"
/>
<path stroke="#e1e1e1" vector-effect="non-scaling-stroke" d="
  M 529.65 146.71
  Q 523.90 147.15 518.05 147.37
  C 487.49 148.48 460.82 159.40 439.38 180.75
  C 430.48 189.61 420.66 202.48 411.66 213.43
  Q 404.72 221.87 400.98 224.77
  C 390.28 233.05 374.82 234.83 361.24 234.97
  C 345.52 235.14 325.17 233.45 307.42 229.03
  Q 303.27 228.00 299.06 227.46"
/>
<path stroke="#ed898c" vector-effect="non-scaling-stroke" d="
  M 299.06 227.46
  C 271.23 202.46 237.31 193.84 201.75 187.98
  Q 166.82 182.22 139.00 176.23
  C 128.42 173.95 116.48 173.62 105.61 176.31
  C 95.76 178.74 86.23 179.38 76.50 180.49
  Q 75.68 180.58 75.68 181.41
  L 75.78 194.53
  A 1.01 1.00 -88.8 0 0 76.73 195.53
  C 86.87 196.08 102.15 195.82 110.26 188.71
  C 111.04 188.03 111.78 187.90 112.74 188.06
  C 144.21 193.06 175.47 199.45 206.89 204.83
  C 239.31 210.38 268.38 218.75 294.78 238.95
  Q 297.54 241.06 300.51 242.91
  A 1.02 0.99 -39.2 0 0 301.40 242.99
  L 304.42 241.85"
/>
<path stroke="#e1e1e1" vector-effect="non-scaling-stroke" d="
  M 304.42 241.85
  Q 339.55 248.89 369.93 248.92
  C 398.17 248.95 409.05 231.27 424.01 211.52
  C 448.06 179.76 484.32 159.84 524.67 161.63
  C 527.89 161.77 530.54 163.04 533.50 164.21
  A 1.35 1.34 -43.6 0 0 534.45 164.23
  Q 536.18 163.61 536.61 162.93"
/>
<path stroke="#8baec0" vector-effect="non-scaling-stroke" d="
  M 536.61 162.93
  Q 574.08 168.80 607.29 183.92
  C 609.41 184.88 610.90 184.50 612.34 182.84
  Q 635.91 155.84 670.29 145.47
  Q 671.64 145.06 671.81 144.50
  A 2.51 2.50 -61.3 0 0 671.05 141.88
  C 665.22 136.85 658.28 133.43 650.73 136.74
  Q 649.61 137.23 642.67 141.72
  C 631.59 148.88 623.14 157.10 613.95 165.65
  C 611.28 168.14 608.55 169.21 605.23 167.84
  C 580.20 157.52 556.94 149.15 529.65 146.71"
/>
<path stroke="#6c8fa2" vector-effect="non-scaling-stroke" d="
  M 536.61 162.93
  Q 532.54 155.86 529.65 146.71"
/>
<path stroke="#cf6a6d" vector-effect="non-scaling-stroke" d="
  M 304.42 241.85
  Q 300.57 235.17 299.06 227.46"
/>
<path stroke="#a0a0a0" vector-effect="non-scaling-stroke" d="
  M 511.81 339.96
  Q 513.13 340.11 512.73 341.50
  L 503.34 374.03
  Q 503.06 375.00 504.07 375.01
  L 527.70 375.33
  A 1.49 1.48 -80.8 0 0 529.14 374.28
  C 538.11 345.44 547.84 316.42 555.74 287.18
  A 0.49 0.48 -81.9 0 0 555.29 286.57
  L 529.28 286.15
  Q 528.62 286.14 528.19 286.64
  L 495.25 324.72
  A 0.47 0.47 0.0 0 1 494.46 324.61
  Q 493.90 323.38 493.48 321.75
  Q 488.98 304.34 485.13 287.26
  Q 484.91 286.26 483.88 286.26
  L 457.10 286.32
  A 0.82 0.80 -81.1 0 0 456.33 286.89
  L 429.67 374.99
  A 0.62 0.62 0.0 0 0 430.27 375.79
  L 455.97 375.32
  Q 456.44 375.31 456.56 374.86
  Q 460.45 360.81 464.52 346.80
  Q 465.36 343.89 466.79 340.97
  A 0.51 0.50 -56.9 0 1 467.57 340.80
  Q 468.92 341.92 469.63 343.59
  Q 475.06 356.35 480.15 369.15
  A 0.88 0.88 0.0 0 0 481.58 369.45
  Q 496.05 355.17 510.91 340.67
  Q 511.65 339.94 511.81 339.96"
/>
<path stroke="#a0a0a0" vector-effect="non-scaling-stroke" d="
  M 631.2952 295.7210
  A 51.91 37.46 -42.2 0 0 567.6773 302.8395
  A 51.91 37.46 -42.2 0 0 554.3848 365.4590
  A 51.91 37.46 -42.2 0 0 618.0027 358.3405
  A 51.91 37.46 -42.2 0 0 631.2952 295.7210"
/>
<path stroke="#a0a0a0" vector-effect="non-scaling-stroke" d="
  M 795.0984 295.5093
  A 52.00 37.47 -42.5 0 0 731.4456 303.0142
  A 52.00 37.47 -42.5 0 0 718.4216 365.7707
  A 52.00 37.47 -42.5 0 0 782.0744 358.2658
  A 52.00 37.47 -42.5 0 0 795.0984 295.5093"
/>
<path stroke="#a0a0a0" vector-effect="non-scaling-stroke" d="
  M 63.94 321.32
  C 70.22 330.76 80.37 338.78 89.17 345.86
  Q 91.10 347.42 90.66 349.04
  Q 90.29 350.41 88.87 350.42
  L 50.47 350.71
  Q 49.98 350.71 49.83 351.18
  L 43.10 373.66
  A 1.07 1.06 -80.4 0 0 44.07 375.03
  Q 71.38 376.29 98.95 374.95
  Q 104.25 374.70 106.45 373.89
  C 117.05 370.02 119.77 354.81 121.12 345.36
  C 121.55 342.28 120.52 339.62 118.35 337.65
  Q 107.35 327.65 96.42 317.58
  Q 94.28 315.60 93.25 313.44
  A 0.72 0.71 -30.3 0 1 93.49 312.54
  Q 95.70 311.01 98.51 311.00
  Q 114.28 310.97 129.64 311.01
  A 2.94 2.94 0.0 0 0 132.46 308.95
  L 138.87 288.60
  Q 139.45 286.75 137.53 286.57
  Q 134.63 286.31 130.50 286.30
  Q 108.18 286.23 85.85 286.27
  C 77.33 286.29 70.03 287.72 66.28 296.31
  Q 63.32 303.11 62.21 313.15
  C 61.83 316.57 62.14 318.61 63.94 321.32"
/>
<path stroke="#a0a0a0" vector-effect="non-scaling-stroke" d="
  M 131.69 375.06
  Q 164.22 375.24 175.06 374.85
  C 188.75 374.35 192.95 366.93 196.65 355.17
  Q 206.59 323.63 216.16 291.97
  Q 216.89 289.57 216.73 287.51
  A 1.28 1.28 0.0 0 0 215.44 286.33
  L 192.15 286.51
  A 1.10 1.09 -81.3 0 0 191.11 287.28
  Q 182.78 314.19 174.58 341.50
  C 172.09 349.80 168.02 356.23 158.39 351.49
  C 155.75 350.19 155.98 348.43 156.72 345.99
  Q 165.28 317.95 174.35 287.94
  Q 174.84 286.32 173.15 286.32
  L 148.89 286.30
  A 1.58 1.56 8.1 0 0 147.38 287.42
  Q 137.19 322.09 126.51 356.75
  Q 124.12 364.48 127.93 372.25
  C 129.09 374.62 128.94 375.05 131.69 375.06"
/>
<path stroke="#a0a0a0" vector-effect="non-scaling-stroke" d="
  M 293.80 298.01
  C 294.95 294.04 296.17 287.14 289.68 287.05
  Q 259.83 286.63 227.61 286.19
  Q 225.62 286.17 225.05 288.07
  L 199.64 372.50
  A 1.79 1.76 -80.4 0 0 201.25 374.80
  L 221.72 375.60
  A 4.31 4.29 -79.7 0 0 225.97 372.65
  L 232.45 352.98
  A 4.71 4.71 0.0 0 1 237.15 349.75
  C 247.42 350.24 257.75 351.24 268.03 349.25
  C 279.53 347.02 280.96 340.19 284.50 328.88
  Q 289.32 313.47 293.80 298.01"
/>
<path stroke="#a0a0a0" vector-effect="non-scaling-stroke" d="
  M 280.62 374.94
  L 339.44 375.58
  A 1.43 1.43 0.0 0 0 340.81 374.60
  Q 344.49 363.58 346.90 352.23
  Q 347.20 350.85 345.78 350.83
  L 316.03 350.47
  Q 315.32 350.47 315.44 349.77
  L 317.33 337.82
  A 1.24 1.23 5.5 0 1 318.60 336.78
  Q 328.09 337.18 337.68 337.45
  C 345.01 337.66 352.42 336.97 349.92 327.26
  A 2.03 2.01 82.2 0 0 347.93 325.74
  L 323.85 326.15
  A 1.11 1.10 -83.6 0 1 322.76 324.77
  L 326.17 310.99
  A 0.71 0.69 7.1 0 1 326.87 310.46
  Q 339.89 310.61 352.91 310.77
  C 356.34 310.81 359.30 311.00 360.73 308.20
  C 362.17 305.39 366.12 294.40 366.25 287.23
  Q 366.26 286.67 365.73 286.53
  Q 364.47 286.19 362.75 286.21
  Q 335.52 286.42 307.22 286.85
  Q 306.04 286.87 305.70 288.00
  L 279.63 373.58
  A 1.05 1.05 0.0 0 0 280.62 374.94"
/>
<path stroke="#a0a0a0" vector-effect="non-scaling-stroke" d="
  M 386.65 349.84
  Q 388.19 351.17 389.46 353.28
  Q 403.09 375.81 416.89 398.95
  A 0.79 0.79 0.0 0 0 418.36 398.50
  Q 417.09 376.55 415.51 354.12
  C 415.35 351.83 415.21 349.72 417.70 348.92
  C 427.39 345.77 430.40 340.81 433.73 330.85
  Q 441.23 308.38 444.45 295.97
  C 446.79 286.95 440.14 286.21 433.21 286.24
  Q 405.42 286.35 376.85 286.60
  Q 375.60 286.61 375.24 287.80
  L 348.94 374.51
  A 0.82 0.82 0.0 0 0 349.74 375.57
  L 373.77 375.20
  A 1.65 1.64 -80.8 0 0 375.29 374.10
  Q 378.61 364.49 381.81 354.56
  Q 382.55 352.27 383.91 350.21
  A 1.84 1.84 0.0 0 1 386.65 349.84"
/>
<path stroke="#a0a0a0" vector-effect="non-scaling-stroke" d="
  M 648.69 311.42
  A 1.52 1.52 0.0 0 0 650.07 313.41
  L 664.25 314.00
  A 1.52 1.52 0.0 0 1 665.64 315.96
  L 648.06 373.40
  A 1.52 1.52 0.0 0 0 649.49 375.36
  L 675.97 375.77
  A 1.52 1.52 0.0 0 0 677.44 374.70
  L 695.88 314.45
  A 1.52 1.52 0.0 0 1 697.41 313.38
  L 710.91 314.04
  A 1.52 1.52 0.0 0 0 712.44 312.94
  L 719.43 288.60
  A 1.52 1.52 0.0 0 0 717.98 286.66
  L 658.04 286.15
  A 1.52 1.52 0.0 0 0 656.59 287.20
  L 648.69 311.42"
/>
<path stroke="#a0a0a0" vector-effect="non-scaling-stroke" d="
  M 814.32 315.01
  C 813.62 324.49 833.67 339.69 840.55 344.95
  Q 842.92 346.76 843.04 348.22
  Q 843.23 350.48 840.99 350.47
  Q 827.56 350.42 802.44 350.84
  Q 801.98 350.85 801.85 351.29
  L 795.30 374.02
  A 0.77 0.77 0.0 0 0 796.01 375.00
  Q 824.53 376.31 853.07 374.93
  C 868.28 374.19 871.61 357.31 873.35 345.22
  Q 873.95 341.05 870.59 337.91
  Q 855.29 323.58 847.93 317.07
  Q 845.98 315.34 845.68 313.03
  A 0.87 0.86 -18.8 0 1 846.11 312.16
  Q 848.00 311.07 850.26 311.06
  Q 866.77 310.99 882.74 311.00
  A 1.52 1.51 -81.0 0 0 884.18 309.95
  L 891.19 288.37
  Q 891.74 286.67 889.96 286.56
  C 872.89 285.49 855.21 286.24 838.08 286.28
  C 826.74 286.30 820.60 288.84 817.10 300.21
  Q 814.88 307.41 814.32 315.01"
/>
<path stroke="#a0a0a0" vector-effect="non-scaling-stroke" d="
  M 608.1527 317.9483
  A 20.37 15.48 -39.7 0 0 582.5919 319.0497
  A 20.37 15.48 -39.7 0 0 576.8073 343.9717
  A 20.37 15.48 -39.7 0 0 602.3681 342.8703
  A 20.37 15.48 -39.7 0 0 608.1527 317.9483"
/>
<path stroke="#a0a0a0" vector-effect="non-scaling-stroke" d="
  M 772.1791 317.8123
  A 20.21 15.50 -40.1 0 0 746.7361 318.9737
  A 20.21 15.50 -40.1 0 0 741.2609 343.8477
  A 20.21 15.50 -40.1 0 0 766.7039 342.6863
  A 20.21 15.50 -40.1 0 0 772.1791 317.8123"
/>
<path stroke="#a0a0a0" vector-effect="non-scaling-stroke" d="
  M 262.12 311.77
  L 245.13 312.10
  A 0.98 0.98 0.0 0 0 244.22 312.80
  Q 242.23 319.86 242.21 327.21
  A 1.45 1.44 -82.8 0 0 243.29 328.61
  C 255.69 331.80 264.15 325.82 263.15 312.70
  A 1.02 1.01 87.0 0 0 262.12 311.77"
/>
<path stroke="#a0a0a0" vector-effect="non-scaling-stroke" d="
  M 393.44 328.56
  C 404.63 332.40 413.83 325.66 412.98 313.78
  A 1.81 1.80 -1.2 0 0 411.23 312.11
  Q 404.52 311.92 398.35 312.01
  C 395.89 312.05 395.44 312.97 394.45 314.93
  C 393.07 317.68 389.42 327.18 393.44 328.56"
/>
</g>
<path fill="#ffffff" d="
  M 0.00 0.00
  L 946.00 0.00
  L 946.00 495.00
  L 0.00 495.00
  L 0.00 0.00
  Z
  M 658.15 107.11
  C 667.18 94.55 676.75 86.16 690.95 81.12
  A 1.95 1.93 53.1 0 1 692.76 81.39
  C 740.76 117.16 778.67 164.89 812.67 213.61
  C 815.50 217.66 817.65 221.66 819.75 225.95
  A 0.87 0.87 0.0 0 0 821.38 225.74
  Q 821.42 225.53 821.43 225.24
  C 821.65 211.75 815.63 202.61 807.24 190.92
  C 782.68 156.73 756.46 124.76 726.50 95.13
  C 714.10 82.88 705.09 74.11 692.47 65.62
  A 2.86 2.86 0.0 0 0 689.75 65.36
  C 674.08 72.10 660.35 85.14 654.53 101.56
  C 653.53 104.41 654.12 106.84 657.33 107.44
  A 0.83 0.81 -66.3 0 0 658.15 107.11
  Z
  M 529.65 146.71
  Q 523.90 147.15 518.05 147.37
  C 487.49 148.48 460.82 159.40 439.38 180.75
  C 430.48 189.61 420.66 202.48 411.66 213.43
  Q 404.72 221.87 400.98 224.77
  C 390.28 233.05 374.82 234.83 361.24 234.97
  C 345.52 235.14 325.17 233.45 307.42 229.03
  Q 303.27 228.00 299.06 227.46
  C 271.23 202.46 237.31 193.84 201.75 187.98
  Q 166.82 182.22 139.00 176.23
  C 128.42 173.95 116.48 173.62 105.61 176.31
  C 95.76 178.74 86.23 179.38 76.50 180.49
  Q 75.68 180.58 75.68 181.41
  L 75.78 194.53
  A 1.01 1.00 -88.8 0 0 76.73 195.53
  C 86.87 196.08 102.15 195.82 110.26 188.71
  C 111.04 188.03 111.78 187.90 112.74 188.06
  C 144.21 193.06 175.47 199.45 206.89 204.83
  C 239.31 210.38 268.38 218.75 294.78 238.95
  Q 297.54 241.06 300.51 242.91
  A 1.02 0.99 -39.2 0 0 301.40 242.99
  L 304.42 241.85
  Q 339.55 248.89 369.93 248.92
  C 398.17 248.95 409.05 231.27 424.01 211.52
  C 448.06 179.76 484.32 159.84 524.67 161.63
  C 527.89 161.77 530.54 163.04 533.50 164.21
  A 1.35 1.34 -43.6 0 0 534.45 164.23
  Q 536.18 163.61 536.61 162.93
  Q 574.08 168.80 607.29 183.92
  C 609.41 184.88 610.90 184.50 612.34 182.84
  Q 635.91 155.84 670.29 145.47
  Q 671.64 145.06 671.81 144.50
  A 2.51 2.50 -61.3 0 0 671.05 141.88
  C 665.22 136.85 658.28 133.43 650.73 136.74
  Q 649.61 137.23 642.67 141.72
  C 631.59 148.88 623.14 157.10 613.95 165.65
  C 611.28 168.14 608.55 169.21 605.23 167.84
  C 580.20 157.52 556.94 149.15 529.65 146.71
  Z
  M 511.81 339.96
  Q 513.13 340.11 512.73 341.50
  L 503.34 374.03
  Q 503.06 375.00 504.07 375.01
  L 527.70 375.33
  A 1.49 1.48 -80.8 0 0 529.14 374.28
  C 538.11 345.44 547.84 316.42 555.74 287.18
  A 0.49 0.48 -81.9 0 0 555.29 286.57
  L 529.28 286.15
  Q 528.62 286.14 528.19 286.64
  L 495.25 324.72
  A 0.47 0.47 0.0 0 1 494.46 324.61
  Q 493.90 323.38 493.48 321.75
  Q 488.98 304.34 485.13 287.26
  Q 484.91 286.26 483.88 286.26
  L 457.10 286.32
  A 0.82 0.80 -81.1 0 0 456.33 286.89
  L 429.67 374.99
  A 0.62 0.62 0.0 0 0 430.27 375.79
  L 455.97 375.32
  Q 456.44 375.31 456.56 374.86
  Q 460.45 360.81 464.52 346.80
  Q 465.36 343.89 466.79 340.97
  A 0.51 0.50 -56.9 0 1 467.57 340.80
  Q 468.92 341.92 469.63 343.59
  Q 475.06 356.35 480.15 369.15
  A 0.88 0.88 0.0 0 0 481.58 369.45
  Q 496.05 355.17 510.91 340.67
  Q 511.65 339.94 511.81 339.96
  Z
  M 631.2952 295.7210
  A 51.91 37.46 -42.2 0 0 567.6773 302.8395
  A 51.91 37.46 -42.2 0 0 554.3848 365.4590
  A 51.91 37.46 -42.2 0 0 618.0027 358.3405
  A 51.91 37.46 -42.2 0 0 631.2952 295.7210
  Z
  M 795.0984 295.5093
  A 52.00 37.47 -42.5 0 0 731.4456 303.0142
  A 52.00 37.47 -42.5 0 0 718.4216 365.7707
  A 52.00 37.47 -42.5 0 0 782.0744 358.2658
  A 52.00 37.47 -42.5 0 0 795.0984 295.5093
  Z
  M 63.94 321.32
  C 70.22 330.76 80.37 338.78 89.17 345.86
  Q 91.10 347.42 90.66 349.04
  Q 90.29 350.41 88.87 350.42
  L 50.47 350.71
  Q 49.98 350.71 49.83 351.18
  L 43.10 373.66
  A 1.07 1.06 -80.4 0 0 44.07 375.03
  Q 71.38 376.29 98.95 374.95
  Q 104.25 374.70 106.45 373.89
  C 117.05 370.02 119.77 354.81 121.12 345.36
  C 121.55 342.28 120.52 339.62 118.35 337.65
  Q 107.35 327.65 96.42 317.58
  Q 94.28 315.60 93.25 313.44
  A 0.72 0.71 -30.3 0 1 93.49 312.54
  Q 95.70 311.01 98.51 311.00
  Q 114.28 310.97 129.64 311.01
  A 2.94 2.94 0.0 0 0 132.46 308.95
  L 138.87 288.60
  Q 139.45 286.75 137.53 286.57
  Q 134.63 286.31 130.50 286.30
  Q 108.18 286.23 85.85 286.27
  C 77.33 286.29 70.03 287.72 66.28 296.31
  Q 63.32 303.11 62.21 313.15
  C 61.83 316.57 62.14 318.61 63.94 321.32
  Z
  M 131.69 375.06
  Q 164.22 375.24 175.06 374.85
  C 188.75 374.35 192.95 366.93 196.65 355.17
  Q 206.59 323.63 216.16 291.97
  Q 216.89 289.57 216.73 287.51
  A 1.28 1.28 0.0 0 0 215.44 286.33
  L 192.15 286.51
  A 1.10 1.09 -81.3 0 0 191.11 287.28
  Q 182.78 314.19 174.58 341.50
  C 172.09 349.80 168.02 356.23 158.39 351.49
  C 155.75 350.19 155.98 348.43 156.72 345.99
  Q 165.28 317.95 174.35 287.94
  Q 174.84 286.32 173.15 286.32
  L 148.89 286.30
  A 1.58 1.56 8.1 0 0 147.38 287.42
  Q 137.19 322.09 126.51 356.75
  Q 124.12 364.48 127.93 372.25
  C 129.09 374.62 128.94 375.05 131.69 375.06
  Z
  M 293.80 298.01
  C 294.95 294.04 296.17 287.14 289.68 287.05
  Q 259.83 286.63 227.61 286.19
  Q 225.62 286.17 225.05 288.07
  L 199.64 372.50
  A 1.79 1.76 -80.4 0 0 201.25 374.80
  L 221.72 375.60
  A 4.31 4.29 -79.7 0 0 225.97 372.65
  L 232.45 352.98
  A 4.71 4.71 0.0 0 1 237.15 349.75
  C 247.42 350.24 257.75 351.24 268.03 349.25
  C 279.53 347.02 280.96 340.19 284.50 328.88
  Q 289.32 313.47 293.80 298.01
  Z
  M 280.62 374.94
  L 339.44 375.58
  A 1.43 1.43 0.0 0 0 340.81 374.60
  Q 344.49 363.58 346.90 352.23
  Q 347.20 350.85 345.78 350.83
  L 316.03 350.47
  Q 315.32 350.47 315.44 349.77
  L 317.33 337.82
  A 1.24 1.23 5.5 0 1 318.60 336.78
  Q 328.09 337.18 337.68 337.45
  C 345.01 337.66 352.42 336.97 349.92 327.26
  A 2.03 2.01 82.2 0 0 347.93 325.74
  L 323.85 326.15
  A 1.11 1.10 -83.6 0 1 322.76 324.77
  L 326.17 310.99
  A 0.71 0.69 7.1 0 1 326.87 310.46
  Q 339.89 310.61 352.91 310.77
  C 356.34 310.81 359.30 311.00 360.73 308.20
  C 362.17 305.39 366.12 294.40 366.25 287.23
  Q 366.26 286.67 365.73 286.53
  Q 364.47 286.19 362.75 286.21
  Q 335.52 286.42 307.22 286.85
  Q 306.04 286.87 305.70 288.00
  L 279.63 373.58
  A 1.05 1.05 0.0 0 0 280.62 374.94
  Z
  M 386.65 349.84
  Q 388.19 351.17 389.46 353.28
  Q 403.09 375.81 416.89 398.95
  A 0.79 0.79 0.0 0 0 418.36 398.50
  Q 417.09 376.55 415.51 354.12
  C 415.35 351.83 415.21 349.72 417.70 348.92
  C 427.39 345.77 430.40 340.81 433.73 330.85
  Q 441.23 308.38 444.45 295.97
  C 446.79 286.95 440.14 286.21 433.21 286.24
  Q 405.42 286.35 376.85 286.60
  Q 375.60 286.61 375.24 287.80
  L 348.94 374.51
  A 0.82 0.82 0.0 0 0 349.74 375.57
  L 373.77 375.20
  A 1.65 1.64 -80.8 0 0 375.29 374.10
  Q 378.61 364.49 381.81 354.56
  Q 382.55 352.27 383.91 350.21
  A 1.84 1.84 0.0 0 1 386.65 349.84
  Z
  M 648.69 311.42
  A 1.52 1.52 0.0 0 0 650.07 313.41
  L 664.25 314.00
  A 1.52 1.52 0.0 0 1 665.64 315.96
  L 648.06 373.40
  A 1.52 1.52 0.0 0 0 649.49 375.36
  L 675.97 375.77
  A 1.52 1.52 0.0 0 0 677.44 374.70
  L 695.88 314.45
  A 1.52 1.52 0.0 0 1 697.41 313.38
  L 710.91 314.04
  A 1.52 1.52 0.0 0 0 712.44 312.94
  L 719.43 288.60
  A 1.52 1.52 0.0 0 0 717.98 286.66
  L 658.04 286.15
  A 1.52 1.52 0.0 0 0 656.59 287.20
  L 648.69 311.42
  Z
  M 814.32 315.01
  C 813.62 324.49 833.67 339.69 840.55 344.95
  Q 842.92 346.76 843.04 348.22
  Q 843.23 350.48 840.99 350.47
  Q 827.56 350.42 802.44 350.84
  Q 801.98 350.85 801.85 351.29
  L 795.30 374.02
  A 0.77 0.77 0.0 0 0 796.01 375.00
  Q 824.53 376.31 853.07 374.93
  C 868.28 374.19 871.61 357.31 873.35 345.22
  Q 873.95 341.05 870.59 337.91
  Q 855.29 323.58 847.93 317.07
  Q 845.98 315.34 845.68 313.03
  A 0.87 0.86 -18.8 0 1 846.11 312.16
  Q 848.00 311.07 850.26 311.06
  Q 866.77 310.99 882.74 311.00
  A 1.52 1.51 -81.0 0 0 884.18 309.95
  L 891.19 288.37
  Q 891.74 286.67 889.96 286.56
  C 872.89 285.49 855.21 286.24 838.08 286.28
  C 826.74 286.30 820.60 288.84 817.10 300.21
  Q 814.88 307.41 814.32 315.01
  Z"
/>
<path fill="#165c81" d="
  M 690.95 81.12
  C 676.75 86.16 667.18 94.55 658.15 107.11
  A 0.83 0.81 -66.3 0 1 657.33 107.44
  C 654.12 106.84 653.53 104.41 654.53 101.56
  C 660.35 85.14 674.08 72.10 689.75 65.36
  A 2.86 2.86 0.0 0 1 692.47 65.62
  C 705.09 74.11 714.10 82.88 726.50 95.13
  C 756.46 124.76 782.68 156.73 807.24 190.92
  C 815.63 202.61 821.65 211.75 821.43 225.24
  Q 821.42 225.53 821.38 225.74
  A 0.87 0.87 0.0 0 1 819.75 225.95
  C 817.65 221.66 815.50 217.66 812.67 213.61
  C 778.67 164.89 740.76 117.16 692.76 81.39
  A 1.95 1.93 53.1 0 0 690.95 81.12
  Z"
/>
<path fill="#165c81" d="
  M 536.61 162.93
  Q 532.54 155.86 529.65 146.71
  C 556.94 149.15 580.20 157.52 605.23 167.84
  C 608.55 169.21 611.28 168.14 613.95 165.65
  C 623.14 157.10 631.59 148.88 642.67 141.72
  Q 649.61 137.23 650.73 136.74
  C 658.28 133.43 665.22 136.85 671.05 141.88
  A 2.51 2.50 -61.3 0 1 671.81 144.50
  Q 671.64 145.06 670.29 145.47
  Q 635.91 155.84 612.34 182.84
  C 610.90 184.50 609.41 184.88 607.29 183.92
  Q 574.08 168.80 536.61 162.93
  Z"
/>
<path fill="#c2c2c2" d="
  M 529.65 146.71
  Q 532.54 155.86 536.61 162.93
  Q 536.18 163.61 534.45 164.23
  A 1.35 1.34 -43.6 0 1 533.50 164.21
  C 530.54 163.04 527.89 161.77 524.67 161.63
  C 484.32 159.84 448.06 179.76 424.01 211.52
  C 409.05 231.27 398.17 248.95 369.93 248.92
  Q 339.55 248.89 304.42 241.85
  Q 300.57 235.17 299.06 227.46
  Q 303.27 228.00 307.42 229.03
  C 325.17 233.45 345.52 235.14 361.24 234.97
  C 374.82 234.83 390.28 233.05 400.98 224.77
  Q 404.72 221.87 411.66 213.43
  C 420.66 202.48 430.48 189.61 439.38 180.75
  C 460.82 159.40 487.49 148.48 518.05 147.37
  Q 523.90 147.15 529.65 146.71
  Z"
/>
<path fill="#db1218" d="
  M 299.06 227.46
  Q 300.57 235.17 304.42 241.85
  L 301.40 242.99
  A 1.02 0.99 -39.2 0 1 300.51 242.91
  Q 297.54 241.06 294.78 238.95
  C 268.38 218.75 239.31 210.38 206.89 204.83
  C 175.47 199.45 144.21 193.06 112.74 188.06
  C 111.78 187.90 111.04 188.03 110.26 188.71
  C 102.15 195.82 86.87 196.08 76.73 195.53
  A 1.01 1.00 -88.8 0 1 75.78 194.53
  L 75.68 181.41
  Q 75.68 180.58 76.50 180.49
  C 86.23 179.38 95.76 178.74 105.61 176.31
  C 116.48 173.62 128.42 173.95 139.00 176.23
  Q 166.82 182.22 201.75 187.98
  C 237.31 193.84 271.23 202.46 299.06 227.46
  Z"
/>
<path fill="#404040" d="
  M 511.81 339.96
  Q 511.65 339.94 510.91 340.67
  Q 496.05 355.17 481.58 369.45
  A 0.88 0.88 0.0 0 1 480.15 369.15
  Q 475.06 356.35 469.63 343.59
  Q 468.92 341.92 467.57 340.80
  A 0.51 0.50 -56.9 0 0 466.79 340.97
  Q 465.36 343.89 464.52 346.80
  Q 460.45 360.81 456.56 374.86
  Q 456.44 375.31 455.97 375.32
  L 430.27 375.79
  A 0.62 0.62 0.0 0 1 429.67 374.99
  L 456.33 286.89
  A 0.82 0.80 -81.1 0 1 457.10 286.32
  L 483.88 286.26
  Q 484.91 286.26 485.13 287.26
  Q 488.98 304.34 493.48 321.75
  Q 493.90 323.38 494.46 324.61
  A 0.47 0.47 0.0 0 0 495.25 324.72
  L 528.19 286.64
  Q 528.62 286.14 529.28 286.15
  L 555.29 286.57
  A 0.49 0.48 -81.9 0 1 555.74 287.18
  C 547.84 316.42 538.11 345.44 529.14 374.28
  A 1.49 1.48 -80.8 0 1 527.70 375.33
  L 504.07 375.01
  Q 503.06 375.00 503.34 374.03
  L 512.73 341.50
  Q 513.13 340.11 511.81 339.96
  Z"
/>
<path fill="#404040" d="
  M 631.2952 295.7210
  A 51.91 37.46 -42.2 0 1 618.0027 358.3405
  A 51.91 37.46 -42.2 0 1 554.3848 365.4590
  A 51.91 37.46 -42.2 0 1 567.6773 302.8395
  A 51.91 37.46 -42.2 0 1 631.2952 295.7210
  Z
  M 608.1527 317.9483
  A 20.37 15.48 -39.7 0 0 582.5919 319.0497
  A 20.37 15.48 -39.7 0 0 576.8073 343.9717
  A 20.37 15.48 -39.7 0 0 602.3681 342.8703
  A 20.37 15.48 -39.7 0 0 608.1527 317.9483
  Z"
/>
<path fill="#404040" d="
  M 795.0984 295.5093
  A 52.00 37.47 -42.5 0 1 782.0744 358.2658
  A 52.00 37.47 -42.5 0 1 718.4216 365.7707
  A 52.00 37.47 -42.5 0 1 731.4456 303.0142
  A 52.00 37.47 -42.5 0 1 795.0984 295.5093
  Z
  M 772.1791 317.8123
  A 20.21 15.50 -40.1 0 0 746.7361 318.9737
  A 20.21 15.50 -40.1 0 0 741.2609 343.8477
  A 20.21 15.50 -40.1 0 0 766.7039 342.6863
  A 20.21 15.50 -40.1 0 0 772.1791 317.8123
  Z"
/>
<path fill="#404040" d="
  M 89.17 345.86
  C 80.37 338.78 70.22 330.76 63.94 321.32
  C 62.14 318.61 61.83 316.57 62.21 313.15
  Q 63.32 303.11 66.28 296.31
  C 70.03 287.72 77.33 286.29 85.85 286.27
  Q 108.18 286.23 130.50 286.30
  Q 134.63 286.31 137.53 286.57
  Q 139.45 286.75 138.87 288.60
  L 132.46 308.95
  A 2.94 2.94 0.0 0 1 129.64 311.01
  Q 114.28 310.97 98.51 311.00
  Q 95.70 311.01 93.49 312.54
  A 0.72 0.71 -30.3 0 0 93.25 313.44
  Q 94.28 315.60 96.42 317.58
  Q 107.35 327.65 118.35 337.65
  C 120.52 339.62 121.55 342.28 121.12 345.36
  C 119.77 354.81 117.05 370.02 106.45 373.89
  Q 104.25 374.70 98.95 374.95
  Q 71.38 376.29 44.07 375.03
  A 1.07 1.06 -80.4 0 1 43.10 373.66
  L 49.83 351.18
  Q 49.98 350.71 50.47 350.71
  L 88.87 350.42
  Q 90.29 350.41 90.66 349.04
  Q 91.10 347.42 89.17 345.86
  Z"
/>
<path fill="#404040" d="
  M 131.69 375.06
  C 128.94 375.05 129.09 374.62 127.93 372.25
  Q 124.12 364.48 126.51 356.75
  Q 137.19 322.09 147.38 287.42
  A 1.58 1.56 8.1 0 1 148.89 286.30
  L 173.15 286.32
  Q 174.84 286.32 174.35 287.94
  Q 165.28 317.95 156.72 345.99
  C 155.98 348.43 155.75 350.19 158.39 351.49
  C 168.02 356.23 172.09 349.80 174.58 341.50
  Q 182.78 314.19 191.11 287.28
  A 1.10 1.09 -81.3 0 1 192.15 286.51
  L 215.44 286.33
  A 1.28 1.28 0.0 0 1 216.73 287.51
  Q 216.89 289.57 216.16 291.97
  Q 206.59 323.63 196.65 355.17
  C 192.95 366.93 188.75 374.35 175.06 374.85
  Q 164.22 375.24 131.69 375.06
  Z"
/>
<path fill="#404040" d="
  M 289.68 287.05
  C 296.17 287.14 294.95 294.04 293.80 298.01
  Q 289.32 313.47 284.50 328.88
  C 280.96 340.19 279.53 347.02 268.03 349.25
  C 257.75 351.24 247.42 350.24 237.15 349.75
  A 4.71 4.71 0.0 0 0 232.45 352.98
  L 225.97 372.65
  A 4.31 4.29 -79.7 0 1 221.72 375.60
  L 201.25 374.80
  A 1.79 1.76 -80.4 0 1 199.64 372.50
  L 225.05 288.07
  Q 225.62 286.17 227.61 286.19
  Q 259.83 286.63 289.68 287.05
  Z
  M 262.12 311.77
  L 245.13 312.10
  A 0.98 0.98 0.0 0 0 244.22 312.80
  Q 242.23 319.86 242.21 327.21
  A 1.45 1.44 -82.8 0 0 243.29 328.61
  C 255.69 331.80 264.15 325.82 263.15 312.70
  A 1.02 1.01 87.0 0 0 262.12 311.77
  Z"
/>
<path fill="#404040" d="
  M 339.44 375.58
  L 280.62 374.94
  A 1.05 1.05 0.0 0 1 279.63 373.58
  L 305.70 288.00
  Q 306.04 286.87 307.22 286.85
  Q 335.52 286.42 362.75 286.21
  Q 364.47 286.19 365.73 286.53
  Q 366.26 286.67 366.25 287.23
  C 366.12 294.40 362.17 305.39 360.73 308.20
  C 359.30 311.00 356.34 310.81 352.91 310.77
  Q 339.89 310.61 326.87 310.46
  A 0.71 0.69 7.1 0 0 326.17 310.99
  L 322.76 324.77
  A 1.11 1.10 -83.6 0 0 323.85 326.15
  L 347.93 325.74
  A 2.03 2.01 82.2 0 1 349.92 327.26
  C 352.42 336.97 345.01 337.66 337.68 337.45
  Q 328.09 337.18 318.60 336.78
  A 1.24 1.23 5.5 0 0 317.33 337.82
  L 315.44 349.77
  Q 315.32 350.47 316.03 350.47
  L 345.78 350.83
  Q 347.20 350.85 346.90 352.23
  Q 344.49 363.58 340.81 374.60
  A 1.43 1.43 0.0 0 1 339.44 375.58
  Z"
/>
<path fill="#404040" d="
  M 386.65 349.84
  A 1.84 1.84 0.0 0 0 383.91 350.21
  Q 382.55 352.27 381.81 354.56
  Q 378.61 364.49 375.29 374.10
  A 1.65 1.64 -80.8 0 1 373.77 375.20
  L 349.74 375.57
  A 0.82 0.82 0.0 0 1 348.94 374.51
  L 375.24 287.80
  Q 375.60 286.61 376.85 286.60
  Q 405.42 286.35 433.21 286.24
  C 440.14 286.21 446.79 286.95 444.45 295.97
  Q 441.23 308.38 433.73 330.85
  C 430.40 340.81 427.39 345.77 417.70 348.92
  C 415.21 349.72 415.35 351.83 415.51 354.12
  Q 417.09 376.55 418.36 398.50
  A 0.79 0.79 0.0 0 1 416.89 398.95
  Q 403.09 375.81 389.46 353.28
  Q 388.19 351.17 386.65 349.84
  Z
  M 393.44 328.56
  C 404.63 332.40 413.83 325.66 412.98 313.78
  A 1.81 1.80 -1.2 0 0 411.23 312.11
  Q 404.52 311.92 398.35 312.01
  C 395.89 312.05 395.44 312.97 394.45 314.93
  C 393.07 317.68 389.42 327.18 393.44 328.56
  Z"
/>
<path fill="#404040" d="
  M 648.69 311.42
  L 656.59 287.20
  A 1.52 1.52 0.0 0 1 658.04 286.15
  L 717.98 286.66
  A 1.52 1.52 0.0 0 1 719.43 288.60
  L 712.44 312.94
  A 1.52 1.52 0.0 0 1 710.91 314.04
  L 697.41 313.38
  A 1.52 1.52 0.0 0 0 695.88 314.45
  L 677.44 374.70
  A 1.52 1.52 0.0 0 1 675.97 375.77
  L 649.49 375.36
  A 1.52 1.52 0.0 0 1 648.06 373.40
  L 665.64 315.96
  A 1.52 1.52 0.0 0 0 664.25 314.00
  L 650.07 313.41
  A 1.52 1.52 0.0 0 1 648.69 311.42
  Z"
/>
<path fill="#404040" d="
  M 840.55 344.95
  C 833.67 339.69 813.62 324.49 814.32 315.01
  Q 814.88 307.41 817.10 300.21
  C 820.60 288.84 826.74 286.30 838.08 286.28
  C 855.21 286.24 872.89 285.49 889.96 286.56
  Q 891.74 286.67 891.19 288.37
  L 884.18 309.95
  A 1.52 1.51 -81.0 0 1 882.74 311.00
  Q 866.77 310.99 850.26 311.06
  Q 848.00 311.07 846.11 312.16
  A 0.87 0.86 -18.8 0 0 845.68 313.03
  Q 845.98 315.34 847.93 317.07
  Q 855.29 323.58 870.59 337.91
  Q 873.95 341.05 873.35 345.22
  C 871.61 357.31 868.28 374.19 853.07 374.93
  Q 824.53 376.31 796.01 375.00
  A 0.77 0.77 0.0 0 1 795.30 374.02
  L 801.85 351.29
  Q 801.98 350.85 802.44 350.84
  Q 827.56 350.42 840.99 350.47
  Q 843.23 350.48 843.04 348.22
  Q 842.92 346.76 840.55 344.95
  Z"
/>
<path fill="#ffffff" d="
  M 262.12 311.77
  A 1.02 1.01 87.0 0 1 263.15 312.70
  C 264.15 325.82 255.69 331.80 243.29 328.61
  A 1.45 1.44 -82.8 0 1 242.21 327.21
  Q 242.23 319.86 244.22 312.80
  A 0.98 0.98 0.0 0 1 245.13 312.10
  L 262.12 311.77
  Z"
/>
<path fill="#ffffff" d="
  M 393.44 328.56
  C 389.42 327.18 393.07 317.68 394.45 314.93
  C 395.44 312.97 395.89 312.05 398.35 312.01
  Q 404.52 311.92 411.23 312.11
  A 1.81 1.80 -1.2 0 1 412.98 313.78
  C 413.83 325.66 404.63 332.40 393.44 328.56
  Z"
/>
<ellipse fill="#ffffff" cx="0.00" cy="0.00" transform="translate(592.48,330.96) rotate(-39.7)" rx="20.37" ry="15.48"/>
<ellipse fill="#ffffff" cx="0.00" cy="0.00" transform="translate(756.72,330.83) rotate(-40.1)" rx="20.21" ry="15.50"/>
</svg>
