<?xml version="1.0" encoding="UTF-8" standalone="no"?>
<!DOCTYPE svg PUBLIC "-//W3C//DTD SVG 1.1//EN" "http://www.w3.org/Graphics/SVG/1.1/DTD/svg11.dtd">
<svg xmlns="http://www.w3.org/2000/svg" version="1.1" viewBox="0.00 0.00 590.00 590.00">
<g stroke-width="3.10" fill="none" stroke-linecap="butt">
<path stroke="#8aaec0" vector-effect="non-scaling-stroke" d="
  M 443.65 182.49
  Q 442.63 183.95 441.79 184.33
  Q 426.01 191.64 419.58 207.78
  Q 418.94 209.38 419.60 210.41
  Q 420.55 211.92 421.83 211.25
  Q 422.40 210.95 423.23 209.81
  Q 431.16 198.90 443.72 194.16
  A 1.36 1.36 0.0 0 1 445.03 194.35
  C 478.93 220.60 506.71 254.39 529.62 290.23
  A 0.73 0.73 0.0 0 0 530.96 289.77
  Q 529.94 279.88 524.63 272.16
  Q 497.20 232.26 462.41 198.58
  Q 454.62 191.04 445.87 184.66
  Q 444.62 183.76 443.82 182.49
  A 0.11 0.10 -43.8 0 0 443.65 182.49"
/>
<path stroke="#e1e1e1" vector-effect="non-scaling-stroke" d="
  M 335.68 238.03
  Q 305.68 237.08 283.34 254.22
  C 273.38 261.87 263.43 274.53 254.76 285.04
  C 248.35 292.80 239.10 295.75 229.00 296.01
  Q 205.83 296.62 183.29 291.45"
/>
<path stroke="#ed898c" vector-effect="non-scaling-stroke" d="
  M 183.29 291.45
  C 169.54 279.73 151.89 271.81 134.69 268.30
  Q 110.24 263.32 69.75 256.50
  C 66.56 255.96 61.37 256.07 57.45 256.81
  Q 46.26 258.91 34.97 259.99
  A 0.80 0.79 -2.8 0 0 34.25 260.78
  L 34.25 269.51
  Q 34.25 270.15 34.89 270.19
  C 42.48 270.67 50.85 270.01 57.36 265.67
  Q 58.10 265.18 58.99 265.32
  Q 93.96 271.07 128.69 277.99
  C 149.04 282.06 166.20 288.58 182.88 301.15
  A 1.80 1.75 -23.1 0 0 183.76 301.49
  Q 185.88 301.69 187.21 300.84"
/>
<path stroke="#e1e1e1" vector-effect="non-scaling-stroke" d="
  M 187.21 300.84
  Q 206.74 304.95 226.37 305.24
  Q 235.69 305.38 240.88 303.72
  C 257.06 298.56 264.21 280.41 276.35 269.23
  Q 303.50 244.25 341.17 248.61"
/>
<path stroke="#8aaec0" vector-effect="non-scaling-stroke" d="
  M 341.17 248.61
  Q 366.25 252.61 388.29 262.46
  A 2.56 2.55 -55.2 0 0 391.14 261.94
  C 403.21 250.00 413.75 241.94 430.38 236.80
  A 0.93 0.93 0.0 0 0 430.85 235.36
  C 425.09 227.63 417.90 230.10 410.91 235.01
  Q 401.17 241.87 392.53 250.10
  C 391.34 251.24 388.89 252.53 387.55 252.00
  C 370.16 245.14 354.07 239.12 335.68 238.03"
/>
<path stroke="#6c8fa2" vector-effect="non-scaling-stroke" d="
  M 341.17 248.61
  L 335.68 238.03"
/>
<path stroke="#cf6a6d" vector-effect="non-scaling-stroke" d="
  M 187.21 300.84
  Q 184.01 297.88 183.29 291.45"
/>
<path stroke="#a0a0a0" vector-effect="non-scaling-stroke" d="
  M 526.04 348.20
  C 525.27 358.02 539.72 364.65 544.85 371.35
  A 1.02 1.01 -18.9 0 1 544.05 372.98
  L 518.22 373.34
  Q 517.70 373.34 517.55 373.84
  L 513.18 388.67
  Q 513.01 389.25 513.62 389.29
  Q 531.80 390.24 549.98 389.27
  C 561.43 388.65 564.76 378.34 565.00 368.53
  C 565.03 367.17 564.23 365.72 563.35 364.90
  Q 555.39 357.47 547.12 349.68
  A 1.30 1.29 -34.8 0 1 547.51 347.54
  Q 548.81 347.00 550.76 346.97
  Q 561.20 346.84 571.75 346.67
  Q 572.27 346.66 572.43 346.16
  L 577.13 331.33
  A 0.51 0.51 0.0 0 0 576.67 330.67
  Q 557.48 329.92 538.33 330.89
  C 529.28 331.34 526.62 340.77 526.04 348.20"
/>
<path stroke="#a0a0a0" vector-effect="non-scaling-stroke" d="
  M 42.96 372.96
  L 17.41 373.35
  A 0.57 0.57 0.0 0 0 16.88 373.75
  L 12.62 388.11
  Q 12.26 389.33 13.53 389.38
  Q 30.67 390.07 46.16 389.47
  C 51.84 389.25 56.31 389.40 59.01 385.54
  Q 63.99 378.44 64.29 367.71
  A 1.50 1.50 0.0 0 0 64.09 366.89
  Q 62.93 364.82 61.98 364.00
  Q 53.62 356.72 47.13 350.25
  Q 44.34 347.46 48.27 347.06
  Q 59.02 345.97 69.84 346.90
  A 2.00 1.99 -78.6 0 0 71.90 345.53
  L 76.27 332.03
  A 1.13 1.12 9.3 0 0 75.21 330.56
  Q 56.24 330.29 38.01 330.87
  C 28.48 331.18 25.51 340.52 25.45 348.45
  C 25.39 357.15 37.42 365.38 43.75 370.74
  A 1.26 1.26 0.0 0 1 42.96 372.96"
/>
<path stroke="#a0a0a0" vector-effect="non-scaling-stroke" d="
  M 70.87 389.35
  Q 86.14 389.30 100.82 389.16
  C 108.92 389.08 111.99 383.64 114.45 376.21
  Q 121.80 354.02 128.21 331.91
  A 1.06 1.05 8.4 0 0 127.20 330.56
  L 112.27 330.47
  A 1.50 1.50 0.0 0 0 110.83 331.54
  Q 105.57 349.07 100.27 366.50
  C 98.59 372.03 94.91 377.57 88.35 373.22
  A 1.52 1.51 25.3 0 1 87.73 371.50
  L 99.94 331.15
  A 0.51 0.50 -81.8 0 0 99.46 330.50
  L 83.00 330.50
  A 1.25 1.23 -81.4 0 0 81.82 331.38
  Q 75.00 354.22 68.23 377.36
  Q 66.48 383.37 69.45 388.54
  A 1.64 1.62 74.3 0 0 70.87 389.35"
/>
<path stroke="#8aaec0" vector-effect="non-scaling-stroke" d="
  M 121.14 372.96
  Q 120.24 374.03 120.60 375.53"
/>
<path stroke="#a0a0a0" vector-effect="non-scaling-stroke" d="
  M 120.60 375.53
  L 116.91 387.38
  Q 116.34 389.22 118.26 389.30
  L 131.45 389.80
  A 2.58 2.58 0.0 0 0 133.99 388.09
  Q 136.29 381.67 138.52 374.99
  Q 139.44 372.25 142.51 372.62
  C 150.78 373.60 167.19 375.10 170.73 365.46
  Q 175.04 353.74 179.52 337.01
  Q 180.47 333.48 178.66 331.53
  A 1.36 1.34 68.4 0 0 177.71 331.11
  L 134.81 330.41
  A 1.09 1.08 -81.0 0 0 133.76 331.18
  L 121.14 372.96"
/>
<path stroke="#2b4e61" vector-effect="non-scaling-stroke" d="
  M 120.60 375.53
  Q 121.44 374.21 121.14 372.96"
/>
<path stroke="#a0a0a0" vector-effect="non-scaling-stroke" d="
  M 193.80 372.49
  L 194.86 365.29
  A 1.29 1.28 4.5 0 1 196.16 364.19
  C 199.43 364.26 222.32 367.22 216.12 357.10
  Q 215.86 356.68 215.37 356.69
  L 199.47 356.90
  A 0.76 0.76 0.0 0 1 198.71 355.96
  L 200.80 347.45
  A 1.32 1.32 0.0 0 1 202.12 346.44
  Q 210.54 346.65 219.19 346.78
  C 225.81 346.89 227.20 335.54 227.55 331.02
  A 0.56 0.55 1.9 0 0 226.99 330.43
  L 188.27 330.80
  A 1.03 1.03 0.0 0 0 187.30 331.53
  L 169.92 388.42
  A 0.70 0.70 0.0 0 0 170.58 389.32
  L 209.27 389.79
  A 1.81 1.80 -82.2 0 0 211.04 388.44
  L 214.76 374.31
  A 0.74 0.74 0.0 0 0 214.06 373.38
  L 194.24 373.01
  Q 193.72 373.00 193.80 372.49"
/>
<path stroke="#a0a0a0" vector-effect="non-scaling-stroke" d="
  M 279.79 335.76
  C 280.93 330.96 275.45 330.48 271.50 330.48
  Q 253.49 330.47 235.16 330.54
  A 1.75 1.75 0.0 0 0 233.49 331.77
  L 216.06 389.11
  A 0.55 0.55 0.0 0 0 216.60 389.82
  L 232.09 389.56
  A 1.72 1.72 0.0 0 0 233.69 388.40
  L 238.58 374.15
  Q 239.10 372.63 240.82 372.91
  Q 241.50 373.02 242.52 374.67
  Q 251.93 389.90 261.36 405.33
  A 0.53 0.53 0.0 0 0 262.34 405.02
  L 260.34 373.41
  A 0.79 0.78 77.4 0 1 260.82 372.64
  C 264.35 371.19 269.05 368.82 270.50 364.96
  Q 276.85 348.17 279.79 335.76"
/>
<path stroke="#a0a0a0" vector-effect="non-scaling-stroke" d="
  M 324.47 366.41
  A 1.02 0.87 17.6 0 1 325.18 367.55
  L 318.90 388.33
  Q 318.55 389.47 319.74 389.47
  L 335.42 389.51
  Q 335.96 389.52 336.12 389.00
  L 353.79 331.53
  A 0.80 0.79 8.5 0 0 353.02 330.50
  L 336.01 330.50
  A 0.90 0.90 0.0 0 0 335.33 330.81
  L 313.58 355.87
  A 0.49 0.49 0.0 0 1 312.73 355.67
  L 306.56 331.05
  Q 306.43 330.50 305.86 330.50
  L 288.30 330.50
  Q 287.63 330.50 287.44 331.14
  L 269.89 389.25
  A 0.65 0.65 0.0 0 0 270.53 390.09
  L 286.94 389.61
  Q 287.47 389.60 287.63 389.09
  Q 290.77 378.92 293.60 368.66
  Q 293.87 367.68 294.40 367.03
  A 0.79 0.79 0.0 0 1 295.74 367.22
  L 303.42 385.28
  A 0.71 0.71 0.0 0 0 304.56 385.51
  Q 314.27 376.14 323.82 366.82
  Q 324.29 366.35 324.47 366.41"
/>
<path stroke="#a0a0a0" vector-effect="non-scaling-stroke" d="
  M 403.9619 336.9020
  A 34.37 24.78 -42.0 0 0 361.8389 341.4849
  A 34.37 24.78 -42.0 0 0 352.8781 382.8980
  A 34.37 24.78 -42.0 0 0 395.0011 378.3151
  A 34.37 24.78 -42.0 0 0 403.9619 336.9020"
/>
<path stroke="#a0a0a0" vector-effect="non-scaling-stroke" d="
  M 446.92 349.52
  A 1.09 1.09 0.0 0 1 447.97 348.75
  L 457.08 348.75
  A 1.09 1.09 0.0 0 0 458.13 347.95
  L 462.64 331.90
  A 1.09 1.09 0.0 0 0 461.59 330.52
  L 421.83 330.49
  A 1.09 1.09 0.0 0 0 420.79 331.25
  L 415.75 347.02
  A 1.09 1.09 0.0 0 0 416.72 348.44
  L 425.83 349.00
  A 1.09 1.09 0.0 0 1 426.81 350.40
  L 415.29 388.23
  A 1.09 1.09 0.0 0 0 416.31 389.63
  L 433.73 389.94
  A 1.09 1.09 0.0 0 0 434.79 389.16
  L 446.92 349.52"
/>
<path stroke="#a0a0a0" vector-effect="non-scaling-stroke" d="
  M 513.0033 336.7784
  A 34.40 24.79 -42.3 0 0 470.8760 341.5945
  A 34.40 24.79 -42.3 0 0 462.1167 383.0816
  A 34.40 24.79 -42.3 0 0 504.2440 378.2655
  A 34.40 24.79 -42.3 0 0 513.0033 336.7784"
/>
<path stroke="#a0a0a0" vector-effect="non-scaling-stroke" d="
  M 145.40 358.45
  C 153.19 360.60 160.32 356.49 158.77 347.93
  Q 158.68 347.44 158.18 347.45
  L 146.79 347.62
  A 0.76 0.76 0.0 0 0 146.05 348.27
  L 144.77 357.50
  A 0.86 0.85 11.8 0 0 145.40 358.45"
/>
<path stroke="#a0a0a0" vector-effect="non-scaling-stroke" d="
  M 257.93 347.56
  L 248.14 347.48
  A 0.89 0.88 -72.3 0 0 247.39 347.87
  Q 244.60 352.02 244.46 357.02
  Q 244.45 357.51 244.86 357.78
  C 252.08 362.49 259.94 355.91 258.30 347.86
  A 0.38 0.37 -5.6 0 0 257.93 347.56"
/>
<path stroke="#a0a0a0" vector-effect="non-scaling-stroke" d="
  M 388.5315 351.5494
  A 13.48 10.22 -39.7 0 0 371.6318 352.2967
  A 13.48 10.22 -39.7 0 0 367.7885 368.7706
  A 13.48 10.22 -39.7 0 0 384.6882 368.0233
  A 13.48 10.22 -39.7 0 0 388.5315 351.5494"
/>
<path stroke="#a0a0a0" vector-effect="non-scaling-stroke" d="
  M 497.7593 351.4845
  A 13.36 10.22 -40.1 0 0 480.9571 352.2725
  A 13.36 10.22 -40.1 0 0 477.3207 368.6955
  A 13.36 10.22 -40.1 0 0 494.1229 367.9075
  A 13.36 10.22 -40.1 0 0 497.7593 351.4845"
/>
</g>
<path fill="#ffffff" d="
  M 0.00 0.00
  L 590.00 0.00
  L 590.00 590.00
  L 0.00 590.00
  L 0.00 0.00
  Z
  M 443.65 182.49
  Q 442.63 183.95 441.79 184.33
  Q 426.01 191.64 419.58 207.78
  Q 418.94 209.38 419.60 210.41
  Q 420.55 211.92 421.83 211.25
  Q 422.40 210.95 423.23 209.81
  Q 431.16 198.90 443.72 194.16
  A 1.36 1.36 0.0 0 1 445.03 194.35
  C 478.93 220.60 506.71 254.39 529.62 290.23
  A 0.73 0.73 0.0 0 0 530.96 289.77
  Q 529.94 279.88 524.63 272.16
  Q 497.20 232.26 462.41 198.58
  Q 454.62 191.04 445.87 184.66
  Q 444.62 183.76 443.82 182.49
  A 0.11 0.10 -43.8 0 0 443.65 182.49
  Z
  M 335.68 238.03
  Q 305.68 237.08 283.34 254.22
  C 273.38 261.87 263.43 274.53 254.76 285.04
  C 248.35 292.80 239.10 295.75 229.00 296.01
  Q 205.83 296.62 183.29 291.45
  C 169.54 279.73 151.89 271.81 134.69 268.30
  Q 110.24 263.32 69.75 256.50
  C 66.56 255.96 61.37 256.07 57.45 256.81
  Q 46.26 258.91 34.97 259.99
  A 0.80 0.79 -2.8 0 0 34.25 260.78
  L 34.25 269.51
  Q 34.25 270.15 34.89 270.19
  C 42.48 270.67 50.85 270.01 57.36 265.67
  Q 58.10 265.18 58.99 265.32
  Q 93.96 271.07 128.69 277.99
  C 149.04 282.06 166.20 288.58 182.88 301.15
  A 1.80 1.75 -23.1 0 0 183.76 301.49
  Q 185.88 301.69 187.21 300.84
  Q 206.74 304.95 226.37 305.24
  Q 235.69 305.38 240.88 303.72
  C 257.06 298.56 264.21 280.41 276.35 269.23
  Q 303.50 244.25 341.17 248.61
  Q 366.25 252.61 388.29 262.46
  A 2.56 2.55 -55.2 0 0 391.14 261.94
  C 403.21 250.00 413.75 241.94 430.38 236.80
  A 0.93 0.93 0.0 0 0 430.85 235.36
  C 425.09 227.63 417.90 230.10 410.91 235.01
  Q 401.17 241.87 392.53 250.10
  C 391.34 251.24 388.89 252.53 387.55 252.00
  C 370.16 245.14 354.07 239.12 335.68 238.03
  Z
  M 526.04 348.20
  C 525.27 358.02 539.72 364.65 544.85 371.35
  A 1.02 1.01 -18.9 0 1 544.05 372.98
  L 518.22 373.34
  Q 517.70 373.34 517.55 373.84
  L 513.18 388.67
  Q 513.01 389.25 513.62 389.29
  Q 531.80 390.24 549.98 389.27
  C 561.43 388.65 564.76 378.34 565.00 368.53
  C 565.03 367.17 564.23 365.72 563.35 364.90
  Q 555.39 357.47 547.12 349.68
  A 1.30 1.29 -34.8 0 1 547.51 347.54
  Q 548.81 347.00 550.76 346.97
  Q 561.20 346.84 571.75 346.67
  Q 572.27 346.66 572.43 346.16
  L 577.13 331.33
  A 0.51 0.51 0.0 0 0 576.67 330.67
  Q 557.48 329.92 538.33 330.89
  C 529.28 331.34 526.62 340.77 526.04 348.20
  Z
  M 42.96 372.96
  L 17.41 373.35
  A 0.57 0.57 0.0 0 0 16.88 373.75
  L 12.62 388.11
  Q 12.26 389.33 13.53 389.38
  Q 30.67 390.07 46.16 389.47
  C 51.84 389.25 56.31 389.40 59.01 385.54
  Q 63.99 378.44 64.29 367.71
  A 1.50 1.50 0.0 0 0 64.09 366.89
  Q 62.93 364.82 61.98 364.00
  Q 53.62 356.72 47.13 350.25
  Q 44.34 347.46 48.27 347.06
  Q 59.02 345.97 69.84 346.90
  A 2.00 1.99 -78.6 0 0 71.90 345.53
  L 76.27 332.03
  A 1.13 1.12 9.3 0 0 75.21 330.56
  Q 56.24 330.29 38.01 330.87
  C 28.48 331.18 25.51 340.52 25.45 348.45
  C 25.39 357.15 37.42 365.38 43.75 370.74
  A 1.26 1.26 0.0 0 1 42.96 372.96
  Z
  M 70.87 389.35
  Q 86.14 389.30 100.82 389.16
  C 108.92 389.08 111.99 383.64 114.45 376.21
  Q 121.80 354.02 128.21 331.91
  A 1.06 1.05 8.4 0 0 127.20 330.56
  L 112.27 330.47
  A 1.50 1.50 0.0 0 0 110.83 331.54
  Q 105.57 349.07 100.27 366.50
  C 98.59 372.03 94.91 377.57 88.35 373.22
  A 1.52 1.51 25.3 0 1 87.73 371.50
  L 99.94 331.15
  A 0.51 0.50 -81.8 0 0 99.46 330.50
  L 83.00 330.50
  A 1.25 1.23 -81.4 0 0 81.82 331.38
  Q 75.00 354.22 68.23 377.36
  Q 66.48 383.37 69.45 388.54
  A 1.64 1.62 74.3 0 0 70.87 389.35
  Z
  M 121.14 372.96
  Q 120.24 374.03 120.60 375.53
  L 116.91 387.38
  Q 116.34 389.22 118.26 389.30
  L 131.45 389.80
  A 2.58 2.58 0.0 0 0 133.99 388.09
  Q 136.29 381.67 138.52 374.99
  Q 139.44 372.25 142.51 372.62
  C 150.78 373.60 167.19 375.10 170.73 365.46
  Q 175.04 353.74 179.52 337.01
  Q 180.47 333.48 178.66 331.53
  A 1.36 1.34 68.4 0 0 177.71 331.11
  L 134.81 330.41
  A 1.09 1.08 -81.0 0 0 133.76 331.18
  L 121.14 372.96
  Z
  M 193.80 372.49
  L 194.86 365.29
  A 1.29 1.28 4.5 0 1 196.16 364.19
  C 199.43 364.26 222.32 367.22 216.12 357.10
  Q 215.86 356.68 215.37 356.69
  L 199.47 356.90
  A 0.76 0.76 0.0 0 1 198.71 355.96
  L 200.80 347.45
  A 1.32 1.32 0.0 0 1 202.12 346.44
  Q 210.54 346.65 219.19 346.78
  C 225.81 346.89 227.20 335.54 227.55 331.02
  A 0.56 0.55 1.9 0 0 226.99 330.43
  L 188.27 330.80
  A 1.03 1.03 0.0 0 0 187.30 331.53
  L 169.92 388.42
  A 0.70 0.70 0.0 0 0 170.58 389.32
  L 209.27 389.79
  A 1.81 1.80 -82.2 0 0 211.04 388.44
  L 214.76 374.31
  A 0.74 0.74 0.0 0 0 214.06 373.38
  L 194.24 373.01
  Q 193.72 373.00 193.80 372.49
  Z
  M 279.79 335.76
  C 280.93 330.96 275.45 330.48 271.50 330.48
  Q 253.49 330.47 235.16 330.54
  A 1.75 1.75 0.0 0 0 233.49 331.77
  L 216.06 389.11
  A 0.55 0.55 0.0 0 0 216.60 389.82
  L 232.09 389.56
  A 1.72 1.72 0.0 0 0 233.69 388.40
  L 238.58 374.15
  Q 239.10 372.63 240.82 372.91
  Q 241.50 373.02 242.52 374.67
  Q 251.93 389.90 261.36 405.33
  A 0.53 0.53 0.0 0 0 262.34 405.02
  L 260.34 373.41
  A 0.79 0.78 77.4 0 1 260.82 372.64
  C 264.35 371.19 269.05 368.82 270.50 364.96
  Q 276.85 348.17 279.79 335.76
  Z
  M 324.47 366.41
  A 1.02 0.87 17.6 0 1 325.18 367.55
  L 318.90 388.33
  Q 318.55 389.47 319.74 389.47
  L 335.42 389.51
  Q 335.96 389.52 336.12 389.00
  L 353.79 331.53
  A 0.80 0.79 8.5 0 0 353.02 330.50
  L 336.01 330.50
  A 0.90 0.90 0.0 0 0 335.33 330.81
  L 313.58 355.87
  A 0.49 0.49 0.0 0 1 312.73 355.67
  L 306.56 331.05
  Q 306.43 330.50 305.86 330.50
  L 288.30 330.50
  Q 287.63 330.50 287.44 331.14
  L 269.89 389.25
  A 0.65 0.65 0.0 0 0 270.53 390.09
  L 286.94 389.61
  Q 287.47 389.60 287.63 389.09
  Q 290.77 378.92 293.60 368.66
  Q 293.87 367.68 294.40 367.03
  A 0.79 0.79 0.0 0 1 295.74 367.22
  L 303.42 385.28
  A 0.71 0.71 0.0 0 0 304.56 385.51
  Q 314.27 376.14 323.82 366.82
  Q 324.29 366.35 324.47 366.41
  Z
  M 403.9619 336.9020
  A 34.37 24.78 -42.0 0 0 361.8389 341.4849
  A 34.37 24.78 -42.0 0 0 352.8781 382.8980
  A 34.37 24.78 -42.0 0 0 395.0011 378.3151
  A 34.37 24.78 -42.0 0 0 403.9619 336.9020
  Z
  M 446.92 349.52
  A 1.09 1.09 0.0 0 1 447.97 348.75
  L 457.08 348.75
  A 1.09 1.09 0.0 0 0 458.13 347.95
  L 462.64 331.90
  A 1.09 1.09 0.0 0 0 461.59 330.52
  L 421.83 330.49
  A 1.09 1.09 0.0 0 0 420.79 331.25
  L 415.75 347.02
  A 1.09 1.09 0.0 0 0 416.72 348.44
  L 425.83 349.00
  A 1.09 1.09 0.0 0 1 426.81 350.40
  L 415.29 388.23
  A 1.09 1.09 0.0 0 0 416.31 389.63
  L 433.73 389.94
  A 1.09 1.09 0.0 0 0 434.79 389.16
  L 446.92 349.52
  Z
  M 513.0033 336.7784
  A 34.40 24.79 -42.3 0 0 470.8760 341.5945
  A 34.40 24.79 -42.3 0 0 462.1167 383.0816
  A 34.40 24.79 -42.3 0 0 504.2440 378.2655
  A 34.40 24.79 -42.3 0 0 513.0033 336.7784
  Z"
/>
<path fill="#155c81" d="
  M 443.65 182.49
  A 0.11 0.10 -43.8 0 1 443.82 182.49
  Q 444.62 183.76 445.87 184.66
  Q 454.62 191.04 462.41 198.58
  Q 497.20 232.26 524.63 272.16
  Q 529.94 279.88 530.96 289.77
  A 0.73 0.73 0.0 0 1 529.62 290.23
  C 506.71 254.39 478.93 220.60 445.03 194.35
  A 1.36 1.36 0.0 0 0 443.72 194.16
  Q 431.16 198.90 423.23 209.81
  Q 422.40 210.95 421.83 211.25
  Q 420.55 211.92 419.60 210.41
  Q 418.94 209.38 419.58 207.78
  Q 426.01 191.64 441.79 184.33
  Q 442.63 183.95 443.65 182.49
  Z"
/>
<path fill="#155c81" d="
  M 341.17 248.61
  L 335.68 238.03
  C 354.07 239.12 370.16 245.14 387.55 252.00
  C 388.89 252.53 391.34 251.24 392.53 250.10
  Q 401.17 241.87 410.91 235.01
  C 417.90 230.10 425.09 227.63 430.85 235.36
  A 0.93 0.93 0.0 0 1 430.38 236.80
  C 413.75 241.94 403.21 250.00 391.14 261.94
  A 2.56 2.55 -55.2 0 1 388.29 262.46
  Q 366.25 252.61 341.17 248.61
  Z"
/>
<path fill="#c2c2c2" d="
  M 335.68 238.03
  L 341.17 248.61
  Q 303.50 244.25 276.35 269.23
  C 264.21 280.41 257.06 298.56 240.88 303.72
  Q 235.69 305.38 226.37 305.24
  Q 206.74 304.95 187.21 300.84
  Q 184.01 297.88 183.29 291.45
  Q 205.83 296.62 229.00 296.01
  C 239.10 295.75 248.35 292.80 254.76 285.04
  C 263.43 274.53 273.38 261.87 283.34 254.22
  Q 305.68 237.08 335.68 238.03
  Z"
/>
<path fill="#db1218" d="
  M 183.29 291.45
  Q 184.01 297.88 187.21 300.84
  Q 185.88 301.69 183.76 301.49
  A 1.80 1.75 -23.1 0 1 182.88 301.15
  C 166.20 288.58 149.04 282.06 128.69 277.99
  Q 93.96 271.07 58.99 265.32
  Q 58.10 265.18 57.36 265.67
  C 50.85 270.01 42.48 270.67 34.89 270.19
  Q 34.25 270.15 34.25 269.51
  L 34.25 260.78
  A 0.80 0.79 -2.8 0 1 34.97 259.99
  Q 46.26 258.91 57.45 256.81
  C 61.37 256.07 66.56 255.96 69.75 256.50
  Q 110.24 263.32 134.69 268.30
  C 151.89 271.81 169.54 279.73 183.29 291.45
  Z"
/>
<path fill="#404040" d="
  M 544.85 371.35
  C 539.72 364.65 525.27 358.02 526.04 348.20
  C 526.62 340.77 529.28 331.34 538.33 330.89
  Q 557.48 329.92 576.67 330.67
  A 0.51 0.51 0.0 0 1 577.13 331.33
  L 572.43 346.16
  Q 572.27 346.66 571.75 346.67
  Q 561.20 346.84 550.76 346.97
  Q 548.81 347.00 547.51 347.54
  A 1.30 1.29 -34.8 0 0 547.12 349.68
  Q 555.39 357.47 563.35 364.90
  C 564.23 365.72 565.03 367.17 565.00 368.53
  C 564.76 378.34 561.43 388.65 549.98 389.27
  Q 531.80 390.24 513.62 389.29
  Q 513.01 389.25 513.18 388.67
  L 517.55 373.84
  Q 517.70 373.34 518.22 373.34
  L 544.05 372.98
  A 1.02 1.01 -18.9 0 0 544.85 371.35
  Z"
/>
<path fill="#404040" d="
  M 42.96 372.96
  A 1.26 1.26 0.0 0 0 43.75 370.74
  C 37.42 365.38 25.39 357.15 25.45 348.45
  C 25.51 340.52 28.48 331.18 38.01 330.87
  Q 56.24 330.29 75.21 330.56
  A 1.13 1.12 9.3 0 1 76.27 332.03
  L 71.90 345.53
  A 2.00 1.99 -78.6 0 1 69.84 346.90
  Q 59.02 345.97 48.27 347.06
  Q 44.34 347.46 47.13 350.25
  Q 53.62 356.72 61.98 364.00
  Q 62.93 364.82 64.09 366.89
  A 1.50 1.50 0.0 0 1 64.29 367.71
  Q 63.99 378.44 59.01 385.54
  C 56.31 389.40 51.84 389.25 46.16 389.47
  Q 30.67 390.07 13.53 389.38
  Q 12.26 389.33 12.62 388.11
  L 16.88 373.75
  A 0.57 0.57 0.0 0 1 17.41 373.35
  L 42.96 372.96
  Z"
/>
<path fill="#404040" d="
  M 70.87 389.35
  A 1.64 1.62 74.3 0 1 69.45 388.54
  Q 66.48 383.37 68.23 377.36
  Q 75.00 354.22 81.82 331.38
  A 1.25 1.23 -81.4 0 1 83.00 330.50
  L 99.46 330.50
  A 0.51 0.50 -81.8 0 1 99.94 331.15
  L 87.73 371.50
  A 1.52 1.51 25.3 0 0 88.35 373.22
  C 94.91 377.57 98.59 372.03 100.27 366.50
  Q 105.57 349.07 110.83 331.54
  A 1.50 1.50 0.0 0 1 112.27 330.47
  L 127.20 330.56
  A 1.06 1.05 8.4 0 1 128.21 331.91
  Q 121.80 354.02 114.45 376.21
  C 111.99 383.64 108.92 389.08 100.82 389.16
  Q 86.14 389.30 70.87 389.35
  Z"
/>
<path fill="#404040" d="
  M 120.60 375.53
  Q 121.44 374.21 121.14 372.96
  L 133.76 331.18
  A 1.09 1.08 -81.0 0 1 134.81 330.41
  L 177.71 331.11
  A 1.36 1.34 68.4 0 1 178.66 331.53
  Q 180.47 333.48 179.52 337.01
  Q 175.04 353.74 170.73 365.46
  C 167.19 375.10 150.78 373.60 142.51 372.62
  Q 139.44 372.25 138.52 374.99
  Q 136.29 381.67 133.99 388.09
  A 2.58 2.58 0.0 0 1 131.45 389.80
  L 118.26 389.30
  Q 116.34 389.22 116.91 387.38
  L 120.60 375.53
  Z
  M 145.40 358.45
  C 153.19 360.60 160.32 356.49 158.77 347.93
  Q 158.68 347.44 158.18 347.45
  L 146.79 347.62
  A 0.76 0.76 0.0 0 0 146.05 348.27
  L 144.77 357.50
  A 0.86 0.85 11.8 0 0 145.40 358.45
  Z"
/>
<path fill="#404040" d="
  M 194.24 373.01
  L 214.06 373.38
  A 0.74 0.74 0.0 0 1 214.76 374.31
  L 211.04 388.44
  A 1.81 1.80 -82.2 0 1 209.27 389.79
  L 170.58 389.32
  A 0.70 0.70 0.0 0 1 169.92 388.42
  L 187.30 331.53
  A 1.03 1.03 0.0 0 1 188.27 330.80
  L 226.99 330.43
  A 0.56 0.55 1.9 0 1 227.55 331.02
  C 227.20 335.54 225.81 346.89 219.19 346.78
  Q 210.54 346.65 202.12 346.44
  A 1.32 1.32 0.0 0 0 200.80 347.45
  L 198.71 355.96
  A 0.76 0.76 0.0 0 0 199.47 356.90
  L 215.37 356.69
  Q 215.86 356.68 216.12 357.10
  C 222.32 367.22 199.43 364.26 196.16 364.19
  A 1.29 1.28 4.5 0 0 194.86 365.29
  L 193.80 372.49
  Q 193.72 373.00 194.24 373.01
  Z"
/>
<path fill="#404040" d="
  M 271.50 330.48
  C 275.45 330.48 280.93 330.96 279.79 335.76
  Q 276.85 348.17 270.50 364.96
  C 269.05 368.82 264.35 371.19 260.82 372.64
  A 0.79 0.78 77.4 0 0 260.34 373.41
  L 262.34 405.02
  A 0.53 0.53 0.0 0 1 261.36 405.33
  Q 251.93 389.90 242.52 374.67
  Q 241.50 373.02 240.82 372.91
  Q 239.10 372.63 238.58 374.15
  L 233.69 388.40
  A 1.72 1.72 0.0 0 1 232.09 389.56
  L 216.60 389.82
  A 0.55 0.55 0.0 0 1 216.06 389.11
  L 233.49 331.77
  A 1.75 1.75 0.0 0 1 235.16 330.54
  Q 253.49 330.47 271.50 330.48
  Z
  M 257.93 347.56
  L 248.14 347.48
  A 0.89 0.88 -72.3 0 0 247.39 347.87
  Q 244.60 352.02 244.46 357.02
  Q 244.45 357.51 244.86 357.78
  C 252.08 362.49 259.94 355.91 258.30 347.86
  A 0.38 0.37 -5.6 0 0 257.93 347.56
  Z"
/>
<path fill="#404040" d="
  M 324.47 366.41
  Q 324.29 366.35 323.82 366.82
  Q 314.27 376.14 304.56 385.51
  A 0.71 0.71 0.0 0 1 303.42 385.28
  L 295.74 367.22
  A 0.79 0.79 0.0 0 0 294.40 367.03
  Q 293.87 367.68 293.60 368.66
  Q 290.77 378.92 287.63 389.09
  Q 287.47 389.60 286.94 389.61
  L 270.53 390.09
  A 0.65 0.65 0.0 0 1 269.89 389.25
  L 287.44 331.14
  Q 287.63 330.50 288.30 330.50
  L 305.86 330.50
  Q 306.43 330.50 306.56 331.05
  L 312.73 355.67
  A 0.49 0.49 0.0 0 0 313.58 355.87
  L 335.33 330.81
  A 0.90 0.90 0.0 0 1 336.01 330.50
  L 353.02 330.50
  A 0.80 0.79 8.5 0 1 353.79 331.53
  L 336.12 389.00
  Q 335.96 389.52 335.42 389.51
  L 319.74 389.47
  Q 318.55 389.47 318.90 388.33
  L 325.18 367.55
  A 1.02 0.87 17.6 0 0 324.47 366.41
  Z"
/>
<path fill="#404040" d="
  M 403.9619 336.9020
  A 34.37 24.78 -42.0 0 1 395.0011 378.3151
  A 34.37 24.78 -42.0 0 1 352.8781 382.8980
  A 34.37 24.78 -42.0 0 1 361.8389 341.4849
  A 34.37 24.78 -42.0 0 1 403.9619 336.9020
  Z
  M 388.5315 351.5494
  A 13.48 10.22 -39.7 0 0 371.6318 352.2967
  A 13.48 10.22 -39.7 0 0 367.7885 368.7706
  A 13.48 10.22 -39.7 0 0 384.6882 368.0233
  A 13.48 10.22 -39.7 0 0 388.5315 351.5494
  Z"
/>
<path fill="#404040" d="
  M 446.92 349.52
  L 434.79 389.16
  A 1.09 1.09 0.0 0 1 433.73 389.94
  L 416.31 389.63
  A 1.09 1.09 0.0 0 1 415.29 388.23
  L 426.81 350.40
  A 1.09 1.09 0.0 0 0 425.83 349.00
  L 416.72 348.44
  A 1.09 1.09 0.0 0 1 415.75 347.02
  L 420.79 331.25
  A 1.09 1.09 0.0 0 1 421.83 330.49
  L 461.59 330.52
  A 1.09 1.09 0.0 0 1 462.64 331.90
  L 458.13 347.95
  A 1.09 1.09 0.0 0 1 457.08 348.75
  L 447.97 348.75
  A 1.09 1.09 0.0 0 0 446.92 349.52
  Z"
/>
<path fill="#404040" d="
  M 513.0033 336.7784
  A 34.40 24.79 -42.3 0 1 504.2440 378.2655
  A 34.40 24.79 -42.3 0 1 462.1167 383.0816
  A 34.40 24.79 -42.3 0 1 470.8760 341.5945
  A 34.40 24.79 -42.3 0 1 513.0033 336.7784
  Z
  M 497.7593 351.4845
  A 13.36 10.22 -40.1 0 0 480.9571 352.2725
  A 13.36 10.22 -40.1 0 0 477.3207 368.6955
  A 13.36 10.22 -40.1 0 0 494.1229 367.9075
  A 13.36 10.22 -40.1 0 0 497.7593 351.4845
  Z"
/>
<path fill="#ffffff" d="
  M 145.40 358.45
  A 0.86 0.85 11.8 0 1 144.77 357.50
  L 146.05 348.27
  A 0.76 0.76 0.0 0 1 146.79 347.62
  L 158.18 347.45
  Q 158.68 347.44 158.77 347.93
  C 160.32 356.49 153.19 360.60 145.40 358.45
  Z"
/>
<path fill="#ffffff" d="
  M 257.93 347.56
  A 0.38 0.37 -5.6 0 1 258.30 347.86
  C 259.94 355.91 252.08 362.49 244.86 357.78
  Q 244.45 357.51 244.46 357.02
  Q 244.60 352.02 247.39 347.87
  A 0.89 0.88 -72.3 0 1 248.14 347.48
  L 257.93 347.56
  Z"
/>
<ellipse fill="#ffffff" cx="0.00" cy="0.00" transform="translate(378.16,360.16) rotate(-39.7)" rx="13.48" ry="10.22"/>
<ellipse fill="#ffffff" cx="0.00" cy="0.00" transform="translate(487.54,360.09) rotate(-40.1)" rx="13.36" ry="10.22"/>
<path fill="#155c81" d="
  M 121.14 372.96
  Q 121.44 374.21 120.60 375.53
  Q 120.24 374.03 121.14 372.96
  Z"
/>
</svg>
